<mxfile host="app.diagrams.net" agent="Mozilla/5.0 (Windows NT 10.0; Win64; x64) AppleWebKit/537.36 (KHTML, like Gecko) Chrome/136.0.0.0 Safari/537.36" version="26.2.14">
  <diagram name="Page-1" id="NlwlbgjPu8o2_B6J6_Zv">
    <mxGraphModel dx="4300" dy="2027" grid="1" gridSize="10" guides="1" tooltips="1" connect="1" arrows="1" fold="1" page="1" pageScale="1" pageWidth="827" pageHeight="1169" math="0" shadow="0">
      <root>
        <mxCell id="0" />
        <mxCell id="1" parent="0" />
        <mxCell id="lDHVkYLqutTyOCWwUgQS-1" value="technical_questions" style="rounded=0;whiteSpace=wrap;html=1;fontFamily=Times New Roman;fontSize=15;fillColor=#e6d0de;strokeColor=#996185;gradientColor=#d5739d;" parent="1" vertex="1">
          <mxGeometry x="-630" y="250" width="140" height="50" as="geometry" />
        </mxCell>
        <mxCell id="lDHVkYLqutTyOCWwUgQS-5" value="&lt;u&gt;id&lt;/u&gt;" style="ellipse;whiteSpace=wrap;html=1;fontFamily=Times New Roman;fontSize=15;" parent="1" vertex="1">
          <mxGeometry x="-800" y="155" width="70" height="50" as="geometry" />
        </mxCell>
        <mxCell id="lDHVkYLqutTyOCWwUgQS-9" value="branch" style="ellipse;whiteSpace=wrap;html=1;fontFamily=Times New Roman;fontSize=15;" parent="1" vertex="1">
          <mxGeometry x="-680" y="100" width="70" height="50" as="geometry" />
        </mxCell>
        <mxCell id="lDHVkYLqutTyOCWwUgQS-10" value="question_text" style="ellipse;whiteSpace=wrap;html=1;fontFamily=Times New Roman;fontSize=15;" parent="1" vertex="1">
          <mxGeometry x="-570" y="100" width="90" height="50" as="geometry" />
        </mxCell>
        <mxCell id="lDHVkYLqutTyOCWwUgQS-11" value="option_A" style="ellipse;whiteSpace=wrap;html=1;fontFamily=Times New Roman;fontSize=15;" parent="1" vertex="1">
          <mxGeometry x="-435" y="160" width="80" height="50" as="geometry" />
        </mxCell>
        <mxCell id="lDHVkYLqutTyOCWwUgQS-12" value="option_B" style="ellipse;whiteSpace=wrap;html=1;fontFamily=Times New Roman;fontSize=15;" parent="1" vertex="1">
          <mxGeometry x="-800" y="330" width="70" height="50" as="geometry" />
        </mxCell>
        <mxCell id="lDHVkYLqutTyOCWwUgQS-13" value="option_C" style="ellipse;whiteSpace=wrap;html=1;fontFamily=Times New Roman;fontSize=15;" parent="1" vertex="1">
          <mxGeometry x="-670" y="370" width="70" height="50" as="geometry" />
        </mxCell>
        <mxCell id="lDHVkYLqutTyOCWwUgQS-14" value="option_D" style="ellipse;whiteSpace=wrap;html=1;fontFamily=Times New Roman;fontSize=15;" parent="1" vertex="1">
          <mxGeometry x="-550" y="370" width="80" height="50" as="geometry" />
        </mxCell>
        <mxCell id="lDHVkYLqutTyOCWwUgQS-15" value="correct_answer" style="ellipse;whiteSpace=wrap;html=1;fontFamily=Times New Roman;fontSize=15;" parent="1" vertex="1">
          <mxGeometry x="-435" y="330" width="115" height="60" as="geometry" />
        </mxCell>
        <mxCell id="lDHVkYLqutTyOCWwUgQS-17" value="" style="endArrow=classic;html=1;rounded=0;exitX=0;exitY=0.25;exitDx=0;exitDy=0;entryX=0.626;entryY=1.028;entryDx=0;entryDy=0;entryPerimeter=0;fontFamily=Times New Roman;fontSize=15;" parent="1" source="lDHVkYLqutTyOCWwUgQS-1" target="lDHVkYLqutTyOCWwUgQS-5" edge="1">
          <mxGeometry width="50" height="50" relative="1" as="geometry">
            <mxPoint x="-750" y="250" as="sourcePoint" />
            <mxPoint x="-740" y="200" as="targetPoint" />
            <Array as="points" />
          </mxGeometry>
        </mxCell>
        <mxCell id="lDHVkYLqutTyOCWwUgQS-18" value="" style="endArrow=classic;html=1;rounded=0;entryX=0.5;entryY=1;entryDx=0;entryDy=0;fontFamily=Times New Roman;exitX=0.25;exitY=0;exitDx=0;exitDy=0;fontSize=15;" parent="1" source="lDHVkYLqutTyOCWwUgQS-1" target="lDHVkYLqutTyOCWwUgQS-9" edge="1">
          <mxGeometry width="50" height="50" relative="1" as="geometry">
            <mxPoint x="-720" y="240" as="sourcePoint" />
            <mxPoint x="-670" y="190" as="targetPoint" />
          </mxGeometry>
        </mxCell>
        <mxCell id="lDHVkYLqutTyOCWwUgQS-19" value="" style="endArrow=classic;html=1;rounded=0;entryX=0.5;entryY=1;entryDx=0;entryDy=0;fontFamily=Times New Roman;exitX=0.614;exitY=0.04;exitDx=0;exitDy=0;exitPerimeter=0;fontSize=15;" parent="1" source="lDHVkYLqutTyOCWwUgQS-1" target="lDHVkYLqutTyOCWwUgQS-10" edge="1">
          <mxGeometry width="50" height="50" relative="1" as="geometry">
            <mxPoint x="-680" y="240" as="sourcePoint" />
            <mxPoint x="-630" y="190" as="targetPoint" />
          </mxGeometry>
        </mxCell>
        <mxCell id="lDHVkYLqutTyOCWwUgQS-20" value="" style="endArrow=classic;html=1;rounded=0;entryX=0.272;entryY=0.996;entryDx=0;entryDy=0;entryPerimeter=0;fontFamily=Times New Roman;exitX=0.942;exitY=-0.006;exitDx=0;exitDy=0;exitPerimeter=0;fontSize=15;" parent="1" source="lDHVkYLqutTyOCWwUgQS-1" target="lDHVkYLqutTyOCWwUgQS-11" edge="1">
          <mxGeometry width="50" height="50" relative="1" as="geometry">
            <mxPoint x="-640" y="240" as="sourcePoint" />
            <mxPoint x="-590" y="190" as="targetPoint" />
          </mxGeometry>
        </mxCell>
        <mxCell id="lDHVkYLqutTyOCWwUgQS-21" value="" style="endArrow=classic;html=1;rounded=0;entryX=0.5;entryY=0;entryDx=0;entryDy=0;fontFamily=Times New Roman;exitX=0;exitY=0.75;exitDx=0;exitDy=0;fontSize=15;" parent="1" source="lDHVkYLqutTyOCWwUgQS-1" target="lDHVkYLqutTyOCWwUgQS-12" edge="1">
          <mxGeometry width="50" height="50" relative="1" as="geometry">
            <mxPoint x="-740" y="270" as="sourcePoint" />
            <mxPoint x="-690" y="220" as="targetPoint" />
          </mxGeometry>
        </mxCell>
        <mxCell id="lDHVkYLqutTyOCWwUgQS-22" value="" style="endArrow=classic;html=1;rounded=0;entryX=0.5;entryY=0;entryDx=0;entryDy=0;fontFamily=Times New Roman;exitX=0.203;exitY=0.989;exitDx=0;exitDy=0;exitPerimeter=0;fontSize=15;" parent="1" source="lDHVkYLqutTyOCWwUgQS-1" target="lDHVkYLqutTyOCWwUgQS-13" edge="1">
          <mxGeometry width="50" height="50" relative="1" as="geometry">
            <mxPoint x="-720" y="290" as="sourcePoint" />
            <mxPoint x="-670" y="230" as="targetPoint" />
          </mxGeometry>
        </mxCell>
        <mxCell id="lDHVkYLqutTyOCWwUgQS-23" value="" style="endArrow=classic;html=1;rounded=0;entryX=0.5;entryY=0;entryDx=0;entryDy=0;fontFamily=Times New Roman;exitX=0.61;exitY=1;exitDx=0;exitDy=0;exitPerimeter=0;fontSize=15;" parent="1" source="lDHVkYLqutTyOCWwUgQS-1" target="lDHVkYLqutTyOCWwUgQS-14" edge="1">
          <mxGeometry width="50" height="50" relative="1" as="geometry">
            <mxPoint x="-670" y="280" as="sourcePoint" />
            <mxPoint x="-620" y="230" as="targetPoint" />
          </mxGeometry>
        </mxCell>
        <mxCell id="lDHVkYLqutTyOCWwUgQS-24" value="" style="endArrow=classic;html=1;rounded=0;entryX=0.35;entryY=-0.02;entryDx=0;entryDy=0;entryPerimeter=0;fontFamily=Times New Roman;exitX=1;exitY=0.75;exitDx=0;exitDy=0;fontSize=15;" parent="1" source="lDHVkYLqutTyOCWwUgQS-1" target="lDHVkYLqutTyOCWwUgQS-15" edge="1">
          <mxGeometry width="50" height="50" relative="1" as="geometry">
            <mxPoint x="-630" y="270" as="sourcePoint" />
            <mxPoint x="-580" y="220" as="targetPoint" />
          </mxGeometry>
        </mxCell>
        <mxCell id="lDHVkYLqutTyOCWwUgQS-26" value="&lt;u&gt;id&lt;/u&gt;" style="ellipse;whiteSpace=wrap;html=1;fontFamily=Times New Roman;fontSize=15;" parent="1" vertex="1">
          <mxGeometry x="-250" y="132.5" width="80" height="50" as="geometry" />
        </mxCell>
        <mxCell id="lDHVkYLqutTyOCWwUgQS-27" value="name" style="ellipse;whiteSpace=wrap;html=1;fontFamily=Times New Roman;fontSize=15;" parent="1" vertex="1">
          <mxGeometry x="-125" y="100" width="90" height="50" as="geometry" />
        </mxCell>
        <mxCell id="lDHVkYLqutTyOCWwUgQS-28" value="usn" style="ellipse;whiteSpace=wrap;html=1;fontFamily=Times New Roman;fontSize=15;" parent="1" vertex="1">
          <mxGeometry y="125" width="90" height="55" as="geometry" />
        </mxCell>
        <mxCell id="lDHVkYLqutTyOCWwUgQS-29" value="student_requests" style="rounded=0;whiteSpace=wrap;html=1;fontFamily=Times New Roman;fontSize=15;fillColor=#e6d0de;strokeColor=#996185;gradientColor=#d5739d;" parent="1" vertex="1">
          <mxGeometry x="-145" y="260" width="130" height="40" as="geometry" />
        </mxCell>
        <mxCell id="lDHVkYLqutTyOCWwUgQS-30" value="branch" style="ellipse;whiteSpace=wrap;html=1;fontFamily=Times New Roman;fontSize=15;" parent="1" vertex="1">
          <mxGeometry x="-220" y="370" width="100" height="60" as="geometry" />
        </mxCell>
        <mxCell id="lDHVkYLqutTyOCWwUgQS-31" value="dob" style="ellipse;whiteSpace=wrap;html=1;fontFamily=Times New Roman;fontSize=15;" parent="1" vertex="1">
          <mxGeometry x="-35" y="370" width="110" height="60" as="geometry" />
        </mxCell>
        <mxCell id="lDHVkYLqutTyOCWwUgQS-32" value="" style="endArrow=classic;html=1;rounded=0;entryX=0.5;entryY=1;entryDx=0;entryDy=0;exitX=0;exitY=0;exitDx=0;exitDy=0;fontFamily=Times New Roman;fontSize=15;" parent="1" source="lDHVkYLqutTyOCWwUgQS-29" target="lDHVkYLqutTyOCWwUgQS-26" edge="1">
          <mxGeometry width="50" height="50" relative="1" as="geometry">
            <mxPoint x="-260" y="250" as="sourcePoint" />
            <mxPoint x="-210" y="230" as="targetPoint" />
          </mxGeometry>
        </mxCell>
        <mxCell id="lDHVkYLqutTyOCWwUgQS-33" value="" style="endArrow=classic;html=1;rounded=0;fontFamily=Times New Roman;exitX=0.5;exitY=0;exitDx=0;exitDy=0;fontSize=15;" parent="1" source="lDHVkYLqutTyOCWwUgQS-29" target="lDHVkYLqutTyOCWwUgQS-27" edge="1">
          <mxGeometry width="50" height="50" relative="1" as="geometry">
            <mxPoint x="-200" y="260" as="sourcePoint" />
            <mxPoint x="-150" y="210" as="targetPoint" />
          </mxGeometry>
        </mxCell>
        <mxCell id="lDHVkYLqutTyOCWwUgQS-34" value="" style="endArrow=classic;html=1;rounded=0;entryX=0.5;entryY=1;entryDx=0;entryDy=0;fontFamily=Times New Roman;exitX=0.842;exitY=-0.005;exitDx=0;exitDy=0;exitPerimeter=0;fontSize=15;" parent="1" source="lDHVkYLqutTyOCWwUgQS-29" target="lDHVkYLqutTyOCWwUgQS-28" edge="1">
          <mxGeometry width="50" height="50" relative="1" as="geometry">
            <mxPoint x="-150" y="260" as="sourcePoint" />
            <mxPoint x="-100" y="210" as="targetPoint" />
            <Array as="points" />
          </mxGeometry>
        </mxCell>
        <mxCell id="lDHVkYLqutTyOCWwUgQS-35" value="" style="endArrow=classic;html=1;rounded=0;entryX=0.5;entryY=0;entryDx=0;entryDy=0;fontFamily=Times New Roman;exitX=0.154;exitY=1;exitDx=0;exitDy=0;exitPerimeter=0;fontSize=15;" parent="1" source="lDHVkYLqutTyOCWwUgQS-29" target="lDHVkYLqutTyOCWwUgQS-30" edge="1">
          <mxGeometry width="50" height="50" relative="1" as="geometry">
            <mxPoint x="-250" y="300" as="sourcePoint" />
            <mxPoint x="-200" y="250" as="targetPoint" />
          </mxGeometry>
        </mxCell>
        <mxCell id="lDHVkYLqutTyOCWwUgQS-36" value="" style="endArrow=classic;html=1;rounded=0;entryX=0.5;entryY=0;entryDx=0;entryDy=0;fontFamily=Times New Roman;exitX=0.75;exitY=1;exitDx=0;exitDy=0;fontSize=15;" parent="1" source="lDHVkYLqutTyOCWwUgQS-29" target="lDHVkYLqutTyOCWwUgQS-31" edge="1">
          <mxGeometry width="50" height="50" relative="1" as="geometry">
            <mxPoint x="-30" y="297" as="sourcePoint" />
            <mxPoint x="-110" y="250" as="targetPoint" />
          </mxGeometry>
        </mxCell>
        <mxCell id="lDHVkYLqutTyOCWwUgQS-37" value="&lt;u&gt;id&amp;nbsp;&lt;/u&gt;" style="ellipse;whiteSpace=wrap;html=1;fontFamily=Times New Roman;fontSize=15;" parent="1" vertex="1">
          <mxGeometry x="195" y="181.25" width="100" height="55" as="geometry" />
        </mxCell>
        <mxCell id="lDHVkYLqutTyOCWwUgQS-38" value="username" style="ellipse;whiteSpace=wrap;html=1;fontFamily=Times New Roman;fontSize=15;" parent="1" vertex="1">
          <mxGeometry x="339" y="180" width="100" height="57.5" as="geometry" />
        </mxCell>
        <mxCell id="lDHVkYLqutTyOCWwUgQS-39" value="password" style="ellipse;whiteSpace=wrap;html=1;fontFamily=Times New Roman;fontSize=15;" parent="1" vertex="1">
          <mxGeometry x="475" y="181.25" width="120" height="60" as="geometry" />
        </mxCell>
        <mxCell id="lDHVkYLqutTyOCWwUgQS-40" value="admin" style="rounded=0;whiteSpace=wrap;html=1;fontFamily=Times New Roman;fontSize=15;fillColor=#e6d0de;strokeColor=#996185;gradientColor=#d5739d;" parent="1" vertex="1">
          <mxGeometry x="329" y="331.25" width="120" height="40" as="geometry" />
        </mxCell>
        <mxCell id="lDHVkYLqutTyOCWwUgQS-41" value="" style="endArrow=classic;html=1;rounded=0;entryX=0.5;entryY=1;entryDx=0;entryDy=0;exitX=0.5;exitY=0;exitDx=0;exitDy=0;fontFamily=Times New Roman;fontSize=15;" parent="1" source="lDHVkYLqutTyOCWwUgQS-40" target="lDHVkYLqutTyOCWwUgQS-38" edge="1">
          <mxGeometry width="50" height="50" relative="1" as="geometry">
            <mxPoint x="379" y="331.25" as="sourcePoint" />
            <mxPoint x="429" y="281.25" as="targetPoint" />
          </mxGeometry>
        </mxCell>
        <mxCell id="lDHVkYLqutTyOCWwUgQS-43" value="" style="endArrow=classic;html=1;rounded=0;entryX=0.5;entryY=1;entryDx=0;entryDy=0;exitX=0;exitY=0;exitDx=0;exitDy=0;fontFamily=Times New Roman;fontSize=15;" parent="1" source="lDHVkYLqutTyOCWwUgQS-40" target="lDHVkYLqutTyOCWwUgQS-37" edge="1">
          <mxGeometry width="50" height="50" relative="1" as="geometry">
            <mxPoint x="329" y="351.25" as="sourcePoint" />
            <mxPoint x="379" y="301.25" as="targetPoint" />
          </mxGeometry>
        </mxCell>
        <mxCell id="lDHVkYLqutTyOCWwUgQS-44" value="" style="endArrow=classic;html=1;rounded=0;entryX=0.282;entryY=0.953;entryDx=0;entryDy=0;entryPerimeter=0;fontFamily=Times New Roman;exitX=1;exitY=0;exitDx=0;exitDy=0;fontSize=15;" parent="1" source="lDHVkYLqutTyOCWwUgQS-40" target="lDHVkYLqutTyOCWwUgQS-39" edge="1">
          <mxGeometry width="50" height="50" relative="1" as="geometry">
            <mxPoint x="449" y="331.25" as="sourcePoint" />
            <mxPoint x="499" y="281.25" as="targetPoint" />
          </mxGeometry>
        </mxCell>
        <mxCell id="lDHVkYLqutTyOCWwUgQS-45" value="resource_request" style="rounded=0;whiteSpace=wrap;html=1;fontFamily=Times New Roman;fontSize=15;fillColor=#e6d0de;strokeColor=#996185;gradientColor=#d5739d;" parent="1" vertex="1">
          <mxGeometry x="-630" y="777.5" width="130" height="50" as="geometry" />
        </mxCell>
        <mxCell id="lDHVkYLqutTyOCWwUgQS-46" value="suggests_resource" style="shape=rhombus;perimeter=rhombusPerimeter;whiteSpace=wrap;html=1;align=center;fontFamily=Times New Roman;fontSize=15;fillColor=#008a00;strokeColor=#005700;fontColor=#ffffff;" parent="1" vertex="1">
          <mxGeometry x="-390" y="580" width="163" height="70" as="geometry" />
        </mxCell>
        <mxCell id="lDHVkYLqutTyOCWwUgQS-47" value="&lt;u&gt;id&lt;/u&gt;" style="ellipse;whiteSpace=wrap;html=1;fontFamily=Times New Roman;fontSize=15;" parent="1" vertex="1">
          <mxGeometry x="-800" y="777.5" width="70" height="50" as="geometry" />
        </mxCell>
        <mxCell id="lDHVkYLqutTyOCWwUgQS-48" value="subject_id" style="ellipse;whiteSpace=wrap;html=1;fontFamily=Times New Roman;fontSize=15;" parent="1" vertex="1">
          <mxGeometry x="-760" y="656.25" width="90" height="55" as="geometry" />
        </mxCell>
        <mxCell id="lDHVkYLqutTyOCWwUgQS-49" value="title" style="ellipse;whiteSpace=wrap;html=1;fontFamily=Times New Roman;fontSize=15;" parent="1" vertex="1">
          <mxGeometry x="-645" y="623.75" width="100" height="55" as="geometry" />
        </mxCell>
        <mxCell id="lDHVkYLqutTyOCWwUgQS-50" value="type" style="ellipse;whiteSpace=wrap;html=1;fontFamily=Times New Roman;fontSize=15;" parent="1" vertex="1">
          <mxGeometry x="-700" y="916.25" width="90" height="60" as="geometry" />
        </mxCell>
        <mxCell id="lDHVkYLqutTyOCWwUgQS-51" value="link" style="ellipse;whiteSpace=wrap;html=1;fontFamily=Times New Roman;fontSize=15;" parent="1" vertex="1">
          <mxGeometry x="-525" y="916.25" width="90" height="60" as="geometry" />
        </mxCell>
        <mxCell id="lDHVkYLqutTyOCWwUgQS-52" value="" style="endArrow=classic;html=1;rounded=0;entryX=0.6;entryY=0.955;entryDx=0;entryDy=0;entryPerimeter=0;fontFamily=Times New Roman;fontSize=15;exitX=0.5;exitY=0;exitDx=0;exitDy=0;" parent="1" source="lDHVkYLqutTyOCWwUgQS-45" target="lDHVkYLqutTyOCWwUgQS-49" edge="1">
          <mxGeometry width="50" height="50" relative="1" as="geometry">
            <mxPoint x="-420" y="770" as="sourcePoint" />
            <mxPoint x="-370" y="690" as="targetPoint" />
          </mxGeometry>
        </mxCell>
        <mxCell id="lDHVkYLqutTyOCWwUgQS-53" value="" style="endArrow=classic;html=1;rounded=0;entryX=0.689;entryY=0.891;entryDx=0;entryDy=0;fontFamily=Times New Roman;fontSize=15;exitX=0.131;exitY=-0.025;exitDx=0;exitDy=0;exitPerimeter=0;entryPerimeter=0;" parent="1" source="lDHVkYLqutTyOCWwUgQS-45" target="lDHVkYLqutTyOCWwUgQS-48" edge="1">
          <mxGeometry width="50" height="50" relative="1" as="geometry">
            <mxPoint x="-490" y="770" as="sourcePoint" />
            <mxPoint x="-440" y="720" as="targetPoint" />
          </mxGeometry>
        </mxCell>
        <mxCell id="lDHVkYLqutTyOCWwUgQS-54" value="" style="endArrow=classic;html=1;rounded=0;entryX=0.5;entryY=0;entryDx=0;entryDy=0;fontFamily=Times New Roman;fontSize=15;exitX=0.354;exitY=1.015;exitDx=0;exitDy=0;exitPerimeter=0;" parent="1" source="lDHVkYLqutTyOCWwUgQS-45" target="lDHVkYLqutTyOCWwUgQS-50" edge="1">
          <mxGeometry width="50" height="50" relative="1" as="geometry">
            <mxPoint x="-540" y="820" as="sourcePoint" />
            <mxPoint x="-490" y="770" as="targetPoint" />
          </mxGeometry>
        </mxCell>
        <mxCell id="lDHVkYLqutTyOCWwUgQS-55" value="" style="endArrow=classic;html=1;rounded=0;entryX=0.5;entryY=0;entryDx=0;entryDy=0;fontFamily=Times New Roman;fontSize=15;exitX=0.75;exitY=1;exitDx=0;exitDy=0;" parent="1" source="lDHVkYLqutTyOCWwUgQS-45" target="lDHVkYLqutTyOCWwUgQS-51" edge="1">
          <mxGeometry width="50" height="50" relative="1" as="geometry">
            <mxPoint x="-460" y="820" as="sourcePoint" />
            <mxPoint x="-410" y="770" as="targetPoint" />
          </mxGeometry>
        </mxCell>
        <mxCell id="lDHVkYLqutTyOCWwUgQS-58" value="" style="endArrow=classic;html=1;rounded=0;exitX=0;exitY=0.5;exitDx=0;exitDy=0;fontFamily=Times New Roman;fontSize=15;entryX=1;entryY=0.5;entryDx=0;entryDy=0;" parent="1" source="lDHVkYLqutTyOCWwUgQS-45" target="lDHVkYLqutTyOCWwUgQS-47" edge="1">
          <mxGeometry width="50" height="50" relative="1" as="geometry">
            <mxPoint x="-540" y="770" as="sourcePoint" />
            <mxPoint x="-729" y="803" as="targetPoint" />
          </mxGeometry>
        </mxCell>
        <mxCell id="lDHVkYLqutTyOCWwUgQS-59" value="" style="endArrow=none;html=1;rounded=0;entryX=0;entryY=0.5;entryDx=0;entryDy=0;exitX=1;exitY=0.5;exitDx=0;exitDy=0;fontFamily=Times New Roman;fontSize=15;" parent="1" source="lDHVkYLqutTyOCWwUgQS-45" target="lDHVkYLqutTyOCWwUgQS-46" edge="1">
          <mxGeometry width="50" height="50" relative="1" as="geometry">
            <mxPoint x="-420" y="800" as="sourcePoint" />
            <mxPoint x="-330" y="805" as="targetPoint" />
          </mxGeometry>
        </mxCell>
        <mxCell id="lDHVkYLqutTyOCWwUgQS-60" value="&lt;font&gt;subjects&lt;/font&gt;" style="rounded=0;whiteSpace=wrap;html=1;fontFamily=Times New Roman;fontSize=15;fillColor=#e6d0de;strokeColor=#996185;gradientColor=#d5739d;" parent="1" vertex="1">
          <mxGeometry x="-120" y="773.75" width="120" height="35" as="geometry" />
        </mxCell>
        <mxCell id="lDHVkYLqutTyOCWwUgQS-61" value="" style="endArrow=none;html=1;rounded=0;exitX=1;exitY=0.5;exitDx=0;exitDy=0;entryX=0;entryY=0.5;entryDx=0;entryDy=0;fontFamily=Times New Roman;fontSize=15;" parent="1" source="lDHVkYLqutTyOCWwUgQS-46" target="lDHVkYLqutTyOCWwUgQS-60" edge="1">
          <mxGeometry width="50" height="50" relative="1" as="geometry">
            <mxPoint x="-170" y="790" as="sourcePoint" />
            <mxPoint x="-120" y="740" as="targetPoint" />
          </mxGeometry>
        </mxCell>
        <mxCell id="lDHVkYLqutTyOCWwUgQS-62" value="&lt;u&gt;id&lt;/u&gt;" style="ellipse;whiteSpace=wrap;html=1;fontFamily=Times New Roman;fontSize=15;" parent="1" vertex="1">
          <mxGeometry x="-132.5" y="628.75" width="70" height="50" as="geometry" />
        </mxCell>
        <mxCell id="lDHVkYLqutTyOCWwUgQS-63" value="&lt;font&gt;name&lt;/font&gt;" style="ellipse;whiteSpace=wrap;html=1;fontFamily=Times New Roman;fontSize=15;" parent="1" vertex="1">
          <mxGeometry x="-45" y="628.75" width="90" height="50" as="geometry" />
        </mxCell>
        <mxCell id="lDHVkYLqutTyOCWwUgQS-64" value="&lt;font&gt;branch&lt;/font&gt;" style="ellipse;whiteSpace=wrap;html=1;fontFamily=Times New Roman;fontSize=15;" parent="1" vertex="1">
          <mxGeometry x="-170" y="906.25" width="100" height="60" as="geometry" />
        </mxCell>
        <mxCell id="lDHVkYLqutTyOCWwUgQS-65" value="&lt;font&gt;description&lt;/font&gt;" style="ellipse;whiteSpace=wrap;html=1;fontFamily=Times New Roman;fontSize=15;" parent="1" vertex="1">
          <mxGeometry x="-55" y="916.25" width="100" height="60" as="geometry" />
        </mxCell>
        <mxCell id="lDHVkYLqutTyOCWwUgQS-68" value="" style="endArrow=classic;html=1;rounded=0;entryX=0.389;entryY=0.978;entryDx=0;entryDy=0;entryPerimeter=0;fontFamily=Times New Roman;fontSize=15;" parent="1" target="lDHVkYLqutTyOCWwUgQS-63" edge="1">
          <mxGeometry width="50" height="50" relative="1" as="geometry">
            <mxPoint x="-20" y="773.75" as="sourcePoint" />
            <mxPoint x="30" y="723.75" as="targetPoint" />
          </mxGeometry>
        </mxCell>
        <mxCell id="lDHVkYLqutTyOCWwUgQS-69" value="" style="endArrow=classic;html=1;rounded=0;entryX=0.5;entryY=0;entryDx=0;entryDy=0;exitX=0.25;exitY=1;exitDx=0;exitDy=0;fontFamily=Times New Roman;fontSize=15;" parent="1" source="lDHVkYLqutTyOCWwUgQS-60" target="lDHVkYLqutTyOCWwUgQS-64" edge="1">
          <mxGeometry width="50" height="50" relative="1" as="geometry">
            <mxPoint x="-110" y="808.75" as="sourcePoint" />
            <mxPoint x="-60" y="758.75" as="targetPoint" />
          </mxGeometry>
        </mxCell>
        <mxCell id="lDHVkYLqutTyOCWwUgQS-72" value="" style="endArrow=classic;html=1;rounded=0;entryX=0.5;entryY=0;entryDx=0;entryDy=0;fontFamily=Times New Roman;fontSize=15;exitX=0.75;exitY=1;exitDx=0;exitDy=0;" parent="1" source="lDHVkYLqutTyOCWwUgQS-60" target="lDHVkYLqutTyOCWwUgQS-65" edge="1">
          <mxGeometry width="50" height="50" relative="1" as="geometry">
            <mxPoint x="-30" y="808.75" as="sourcePoint" />
            <mxPoint x="20" y="758.75" as="targetPoint" />
          </mxGeometry>
        </mxCell>
        <mxCell id="lDHVkYLqutTyOCWwUgQS-74" value="" style="endArrow=classic;html=1;rounded=0;entryX=0.5;entryY=1;entryDx=0;entryDy=0;exitX=0.25;exitY=0.071;exitDx=0;exitDy=0;exitPerimeter=0;fontFamily=Times New Roman;fontSize=15;" parent="1" source="lDHVkYLqutTyOCWwUgQS-60" target="lDHVkYLqutTyOCWwUgQS-62" edge="1">
          <mxGeometry width="50" height="50" relative="1" as="geometry">
            <mxPoint x="-100" y="766.25" as="sourcePoint" />
            <mxPoint x="-60" y="723.75" as="targetPoint" />
          </mxGeometry>
        </mxCell>
        <mxCell id="lDHVkYLqutTyOCWwUgQS-75" value="&lt;font&gt;linked_to&lt;/font&gt;" style="shape=rhombus;perimeter=rhombusPerimeter;whiteSpace=wrap;html=1;align=center;fontFamily=Times New Roman;fontSize=15;fillColor=#008a00;strokeColor=#005700;fontColor=#ffffff;" parent="1" vertex="1">
          <mxGeometry x="314" y="575" width="150" height="75" as="geometry" />
        </mxCell>
        <mxCell id="lDHVkYLqutTyOCWwUgQS-76" value="" style="endArrow=none;html=1;rounded=0;entryX=0;entryY=0.5;entryDx=0;entryDy=0;exitX=1;exitY=0.5;exitDx=0;exitDy=0;fontFamily=Times New Roman;fontSize=15;" parent="1" source="lDHVkYLqutTyOCWwUgQS-60" target="lDHVkYLqutTyOCWwUgQS-75" edge="1">
          <mxGeometry relative="1" as="geometry">
            <mxPoint x="30" y="794.5" as="sourcePoint" />
            <mxPoint x="190" y="794.5" as="targetPoint" />
          </mxGeometry>
        </mxCell>
        <mxCell id="lDHVkYLqutTyOCWwUgQS-77" value="&lt;font&gt;resources&lt;/font&gt;" style="rounded=0;whiteSpace=wrap;html=1;fontFamily=Times New Roman;fontSize=15;fillColor=#e6d0de;strokeColor=#996185;gradientColor=#d5739d;" parent="1" vertex="1">
          <mxGeometry x="779" y="780" width="130" height="40" as="geometry" />
        </mxCell>
        <mxCell id="lDHVkYLqutTyOCWwUgQS-78" value="" style="endArrow=none;html=1;rounded=0;entryX=0;entryY=0.5;entryDx=0;entryDy=0;exitX=1;exitY=0.5;exitDx=0;exitDy=0;fontFamily=Times New Roman;fontSize=15;" parent="1" source="lDHVkYLqutTyOCWwUgQS-75" target="lDHVkYLqutTyOCWwUgQS-77" edge="1">
          <mxGeometry width="50" height="50" relative="1" as="geometry">
            <mxPoint x="540" y="790" as="sourcePoint" />
            <mxPoint x="590" y="740" as="targetPoint" />
          </mxGeometry>
        </mxCell>
        <mxCell id="lDHVkYLqutTyOCWwUgQS-79" value="&lt;u&gt;id&lt;/u&gt;" style="ellipse;whiteSpace=wrap;html=1;fontFamily=Times New Roman;fontSize=15;" parent="1" vertex="1">
          <mxGeometry x="699" y="610" width="70" height="50" as="geometry" />
        </mxCell>
        <mxCell id="lDHVkYLqutTyOCWwUgQS-80" value="title" style="ellipse;whiteSpace=wrap;html=1;fontFamily=Times New Roman;fontSize=15;" parent="1" vertex="1">
          <mxGeometry x="794" y="602.5" width="100" height="52.5" as="geometry" />
        </mxCell>
        <mxCell id="lDHVkYLqutTyOCWwUgQS-81" value="subject_id" style="ellipse;whiteSpace=wrap;html=1;fontFamily=Times New Roman;fontSize=15;" parent="1" vertex="1">
          <mxGeometry x="915" y="601.25" width="90" height="55" as="geometry" />
        </mxCell>
        <mxCell id="lDHVkYLqutTyOCWwUgQS-82" value="link" style="ellipse;whiteSpace=wrap;html=1;fontFamily=Times New Roman;fontSize=15;" parent="1" vertex="1">
          <mxGeometry x="1005" y="650" width="90" height="60" as="geometry" />
        </mxCell>
        <mxCell id="lDHVkYLqutTyOCWwUgQS-83" value="type" style="ellipse;whiteSpace=wrap;html=1;fontFamily=Times New Roman;fontSize=15;" parent="1" vertex="1">
          <mxGeometry x="571" y="790" width="90" height="60" as="geometry" />
        </mxCell>
        <mxCell id="lDHVkYLqutTyOCWwUgQS-84" value="" style="endArrow=classic;html=1;rounded=0;entryX=0.373;entryY=0.948;entryDx=0;entryDy=0;exitX=0.75;exitY=0;exitDx=0;exitDy=0;fontFamily=Times New Roman;fontSize=15;entryPerimeter=0;" parent="1" source="lDHVkYLqutTyOCWwUgQS-77" target="lDHVkYLqutTyOCWwUgQS-81" edge="1">
          <mxGeometry width="50" height="50" relative="1" as="geometry">
            <mxPoint x="809" y="777.5" as="sourcePoint" />
            <mxPoint x="859" y="727.5" as="targetPoint" />
          </mxGeometry>
        </mxCell>
        <mxCell id="lDHVkYLqutTyOCWwUgQS-85" value="" style="endArrow=classic;html=1;rounded=0;entryX=0.5;entryY=1;entryDx=0;entryDy=0;exitX=0.326;exitY=0.075;exitDx=0;exitDy=0;fontFamily=Times New Roman;fontSize=15;exitPerimeter=0;" parent="1" source="lDHVkYLqutTyOCWwUgQS-77" target="lDHVkYLqutTyOCWwUgQS-80" edge="1">
          <mxGeometry width="50" height="50" relative="1" as="geometry">
            <mxPoint x="739" y="777.5" as="sourcePoint" />
            <mxPoint x="789" y="727.5" as="targetPoint" />
          </mxGeometry>
        </mxCell>
        <mxCell id="lDHVkYLqutTyOCWwUgQS-86" value="" style="endArrow=classic;html=1;rounded=0;entryX=0.5;entryY=1;entryDx=0;entryDy=0;fontFamily=Times New Roman;fontSize=15;exitX=0.073;exitY=-0.018;exitDx=0;exitDy=0;exitPerimeter=0;" parent="1" source="lDHVkYLqutTyOCWwUgQS-77" target="lDHVkYLqutTyOCWwUgQS-79" edge="1">
          <mxGeometry width="50" height="50" relative="1" as="geometry">
            <mxPoint x="685" y="777.5" as="sourcePoint" />
            <mxPoint x="735" y="727.5" as="targetPoint" />
          </mxGeometry>
        </mxCell>
        <mxCell id="lDHVkYLqutTyOCWwUgQS-87" value="" style="endArrow=classic;html=1;rounded=0;entryX=1;entryY=0.5;entryDx=0;entryDy=0;exitX=0;exitY=1;exitDx=0;exitDy=0;fontFamily=Times New Roman;fontSize=15;" parent="1" source="lDHVkYLqutTyOCWwUgQS-77" target="lDHVkYLqutTyOCWwUgQS-83" edge="1">
          <mxGeometry width="50" height="50" relative="1" as="geometry">
            <mxPoint x="685" y="817.5" as="sourcePoint" />
            <mxPoint x="735" y="767.5" as="targetPoint" />
          </mxGeometry>
        </mxCell>
        <mxCell id="lDHVkYLqutTyOCWwUgQS-88" value="" style="endArrow=classic;html=1;rounded=0;entryX=0;entryY=1;entryDx=0;entryDy=0;fontFamily=Times New Roman;fontSize=15;exitX=1;exitY=0;exitDx=0;exitDy=0;" parent="1" source="lDHVkYLqutTyOCWwUgQS-77" target="lDHVkYLqutTyOCWwUgQS-82" edge="1">
          <mxGeometry width="50" height="50" relative="1" as="geometry">
            <mxPoint x="784" y="817.5" as="sourcePoint" />
            <mxPoint x="834" y="767.5" as="targetPoint" />
          </mxGeometry>
        </mxCell>
        <mxCell id="lDHVkYLqutTyOCWwUgQS-92" value="&lt;font&gt;mock_test_reuslts&lt;/font&gt;" style="rounded=0;whiteSpace=wrap;html=1;fontFamily=Times New Roman;fontSize=15;fillColor=#e6d0de;strokeColor=#996185;gradientColor=#d5739d;" parent="1" vertex="1">
          <mxGeometry x="-545" y="1402.5" width="160" height="40" as="geometry" />
        </mxCell>
        <mxCell id="lDHVkYLqutTyOCWwUgQS-93" value="usn" style="ellipse;whiteSpace=wrap;html=1;fontFamily=Times New Roman;" parent="1" vertex="1">
          <mxGeometry x="-530" y="1222.5" width="80" height="55" as="geometry" />
        </mxCell>
        <mxCell id="lDHVkYLqutTyOCWwUgQS-94" value="&lt;u&gt;id&lt;/u&gt;" style="ellipse;whiteSpace=wrap;html=1;fontFamily=Times New Roman;fontSize=15;" parent="1" vertex="1">
          <mxGeometry x="-630" y="1225" width="70" height="50" as="geometry" />
        </mxCell>
        <mxCell id="lDHVkYLqutTyOCWwUgQS-95" value="test_type" style="ellipse;whiteSpace=wrap;html=1;fontFamily=Times New Roman;" parent="1" vertex="1">
          <mxGeometry x="-420" y="1240" width="90" height="57.5" as="geometry" />
        </mxCell>
        <mxCell id="lDHVkYLqutTyOCWwUgQS-96" value="score" style="ellipse;whiteSpace=wrap;html=1;fontFamily=Times New Roman;" parent="1" vertex="1">
          <mxGeometry x="-750" y="1492.5" width="100" height="60" as="geometry" />
        </mxCell>
        <mxCell id="lDHVkYLqutTyOCWwUgQS-97" value="correct_answers" style="ellipse;whiteSpace=wrap;html=1;fontFamily=Times New Roman;" parent="1" vertex="1">
          <mxGeometry x="-480" y="1590" width="120" height="60" as="geometry" />
        </mxCell>
        <mxCell id="lDHVkYLqutTyOCWwUgQS-98" value="attempted_question" style="ellipse;whiteSpace=wrap;html=1;fontFamily=Times New Roman;" parent="1" vertex="1">
          <mxGeometry x="-630" y="1557.5" width="150" height="70" as="geometry" />
        </mxCell>
        <mxCell id="lDHVkYLqutTyOCWwUgQS-99" value="timestamp" style="ellipse;whiteSpace=wrap;html=1;fontFamily=Times New Roman;" parent="1" vertex="1">
          <mxGeometry x="-730" y="1282.5" width="90" height="60" as="geometry" />
        </mxCell>
        <mxCell id="lDHVkYLqutTyOCWwUgQS-101" value="" style="endArrow=classic;html=1;rounded=0;entryX=0.5;entryY=1;entryDx=0;entryDy=0;exitX=0.5;exitY=0;exitDx=0;exitDy=0;fontFamily=Times New Roman;" parent="1" source="lDHVkYLqutTyOCWwUgQS-92" target="lDHVkYLqutTyOCWwUgQS-93" edge="1">
          <mxGeometry width="50" height="50" relative="1" as="geometry">
            <mxPoint x="-435" y="1402.5" as="sourcePoint" />
            <mxPoint x="-385" y="1352.5" as="targetPoint" />
          </mxGeometry>
        </mxCell>
        <mxCell id="lDHVkYLqutTyOCWwUgQS-102" value="" style="endArrow=classic;html=1;rounded=0;entryX=0.5;entryY=1;entryDx=0;entryDy=0;exitX=0.75;exitY=0;exitDx=0;exitDy=0;fontFamily=Times New Roman;" parent="1" source="lDHVkYLqutTyOCWwUgQS-92" target="lDHVkYLqutTyOCWwUgQS-95" edge="1">
          <mxGeometry width="50" height="50" relative="1" as="geometry">
            <mxPoint x="-395" y="1402.5" as="sourcePoint" />
            <mxPoint x="-345" y="1352.5" as="targetPoint" />
          </mxGeometry>
        </mxCell>
        <mxCell id="lDHVkYLqutTyOCWwUgQS-103" value="" style="endArrow=classic;html=1;rounded=0;entryX=0.5;entryY=1;entryDx=0;entryDy=0;exitX=0.31;exitY=0.031;exitDx=0;exitDy=0;exitPerimeter=0;fontFamily=Times New Roman;" parent="1" source="lDHVkYLqutTyOCWwUgQS-92" target="lDHVkYLqutTyOCWwUgQS-94" edge="1">
          <mxGeometry width="50" height="50" relative="1" as="geometry">
            <mxPoint x="-500" y="1402.5" as="sourcePoint" />
            <mxPoint x="-450" y="1352.5" as="targetPoint" />
          </mxGeometry>
        </mxCell>
        <mxCell id="lDHVkYLqutTyOCWwUgQS-104" value="" style="endArrow=classic;html=1;rounded=0;entryX=0.754;entryY=0.932;entryDx=0;entryDy=0;exitX=0;exitY=0;exitDx=0;exitDy=0;entryPerimeter=0;fontFamily=Times New Roman;" parent="1" source="lDHVkYLqutTyOCWwUgQS-92" target="lDHVkYLqutTyOCWwUgQS-99" edge="1">
          <mxGeometry width="50" height="50" relative="1" as="geometry">
            <mxPoint x="-545" y="1402.5" as="sourcePoint" />
            <mxPoint x="-495" y="1352.5" as="targetPoint" />
          </mxGeometry>
        </mxCell>
        <mxCell id="lDHVkYLqutTyOCWwUgQS-105" value="" style="endArrow=classic;html=1;rounded=0;entryX=0.5;entryY=0;entryDx=0;entryDy=0;exitX=0.392;exitY=1.088;exitDx=0;exitDy=0;fontFamily=Times New Roman;exitPerimeter=0;" parent="1" source="lDHVkYLqutTyOCWwUgQS-92" target="lDHVkYLqutTyOCWwUgQS-98" edge="1">
          <mxGeometry width="50" height="50" relative="1" as="geometry">
            <mxPoint x="-465" y="1442.5" as="sourcePoint" />
            <mxPoint x="-415" y="1392.5" as="targetPoint" />
          </mxGeometry>
        </mxCell>
        <mxCell id="lDHVkYLqutTyOCWwUgQS-106" value="" style="endArrow=classic;html=1;rounded=0;entryX=1;entryY=0;entryDx=0;entryDy=0;exitX=0.25;exitY=1;exitDx=0;exitDy=0;fontFamily=Times New Roman;" parent="1" source="lDHVkYLqutTyOCWwUgQS-92" target="lDHVkYLqutTyOCWwUgQS-96" edge="1">
          <mxGeometry width="50" height="50" relative="1" as="geometry">
            <mxPoint x="-525" y="1447.5" as="sourcePoint" />
            <mxPoint x="-475" y="1397.5" as="targetPoint" />
          </mxGeometry>
        </mxCell>
        <mxCell id="lDHVkYLqutTyOCWwUgQS-107" value="" style="endArrow=classic;html=1;rounded=0;entryX=0.5;entryY=0;entryDx=0;entryDy=0;exitX=0.75;exitY=1;exitDx=0;exitDy=0;fontFamily=Times New Roman;" parent="1" source="lDHVkYLqutTyOCWwUgQS-92" target="lDHVkYLqutTyOCWwUgQS-97" edge="1">
          <mxGeometry width="50" height="50" relative="1" as="geometry">
            <mxPoint x="-415" y="1442.5" as="sourcePoint" />
            <mxPoint x="-365" y="1392.5" as="targetPoint" />
          </mxGeometry>
        </mxCell>
        <mxCell id="lDHVkYLqutTyOCWwUgQS-108" value="attempts" style="shape=rhombus;perimeter=rhombusPerimeter;whiteSpace=wrap;html=1;align=center;fontFamily=Times New Roman;fillColor=#008a00;strokeColor=#005700;fontColor=#ffffff;" parent="1" vertex="1">
          <mxGeometry x="-190" y="1240" width="120" height="60" as="geometry" />
        </mxCell>
        <mxCell id="lDHVkYLqutTyOCWwUgQS-109" value="" style="endArrow=none;html=1;rounded=0;entryX=0;entryY=0.5;entryDx=0;entryDy=0;exitX=1;exitY=0.5;exitDx=0;exitDy=0;fontFamily=Times New Roman;" parent="1" source="lDHVkYLqutTyOCWwUgQS-92" target="lDHVkYLqutTyOCWwUgQS-108" edge="1">
          <mxGeometry relative="1" as="geometry">
            <mxPoint x="-210" y="1402.5" as="sourcePoint" />
            <mxPoint x="-90" y="1422.02" as="targetPoint" />
          </mxGeometry>
        </mxCell>
        <mxCell id="lDHVkYLqutTyOCWwUgQS-111" value="" style="endArrow=none;html=1;rounded=0;entryX=0;entryY=0.5;entryDx=0;entryDy=0;exitX=1;exitY=0.5;exitDx=0;exitDy=0;fontFamily=Times New Roman;" parent="1" source="lDHVkYLqutTyOCWwUgQS-108" target="lDHVkYLqutTyOCWwUgQS-206" edge="1">
          <mxGeometry width="50" height="50" relative="1" as="geometry">
            <mxPoint x="70" y="1392.5" as="sourcePoint" />
            <mxPoint x="230" y="1422.5" as="targetPoint" />
          </mxGeometry>
        </mxCell>
        <mxCell id="lDHVkYLqutTyOCWwUgQS-203" value="&lt;u&gt;id&lt;/u&gt;" style="ellipse;whiteSpace=wrap;html=1;fontFamily=Times New Roman;fontSize=15;" parent="1" vertex="1">
          <mxGeometry x="85" y="1200" width="80" height="50" as="geometry" />
        </mxCell>
        <mxCell id="lDHVkYLqutTyOCWwUgQS-204" value="name" style="ellipse;whiteSpace=wrap;html=1;fontFamily=Times New Roman;fontSize=15;" parent="1" vertex="1">
          <mxGeometry x="217.5" y="1172.5" width="90" height="50" as="geometry" />
        </mxCell>
        <mxCell id="lDHVkYLqutTyOCWwUgQS-205" value="usn" style="ellipse;whiteSpace=wrap;html=1;fontFamily=Times New Roman;fontSize=15;" parent="1" vertex="1">
          <mxGeometry x="359" y="1195" width="90" height="55" as="geometry" />
        </mxCell>
        <mxCell id="lDHVkYLqutTyOCWwUgQS-206" value="students" style="rounded=0;whiteSpace=wrap;html=1;fontFamily=Times New Roman;fontSize=15;fillColor=#e6d0de;strokeColor=#996185;gradientColor=#d5739d;" parent="1" vertex="1">
          <mxGeometry x="166" y="1402.5" width="130" height="40" as="geometry" />
        </mxCell>
        <mxCell id="lDHVkYLqutTyOCWwUgQS-207" value="branch" style="ellipse;whiteSpace=wrap;html=1;fontFamily=Times New Roman;fontSize=15;" parent="1" vertex="1">
          <mxGeometry x="90" y="1562.5" width="100" height="60" as="geometry" />
        </mxCell>
        <mxCell id="lDHVkYLqutTyOCWwUgQS-208" value="dob" style="ellipse;whiteSpace=wrap;html=1;fontFamily=Times New Roman;fontSize=15;" parent="1" vertex="1">
          <mxGeometry x="339" y="1552.5" width="110" height="60" as="geometry" />
        </mxCell>
        <mxCell id="lDHVkYLqutTyOCWwUgQS-209" value="" style="endArrow=classic;html=1;rounded=0;entryX=0.5;entryY=1;entryDx=0;entryDy=0;fontFamily=Times New Roman;fontSize=15;exitX=0.25;exitY=0;exitDx=0;exitDy=0;" parent="1" source="lDHVkYLqutTyOCWwUgQS-206" target="lDHVkYLqutTyOCWwUgQS-203" edge="1">
          <mxGeometry width="50" height="50" relative="1" as="geometry">
            <mxPoint x="190" y="1400" as="sourcePoint" />
            <mxPoint x="180" y="1382.5" as="targetPoint" />
          </mxGeometry>
        </mxCell>
        <mxCell id="lDHVkYLqutTyOCWwUgQS-210" value="" style="endArrow=classic;html=1;rounded=0;fontFamily=Times New Roman;exitX=0.629;exitY=0.074;exitDx=0;exitDy=0;fontSize=15;exitPerimeter=0;" parent="1" source="lDHVkYLqutTyOCWwUgQS-206" target="lDHVkYLqutTyOCWwUgQS-204" edge="1">
          <mxGeometry width="50" height="50" relative="1" as="geometry">
            <mxPoint x="190" y="1412.5" as="sourcePoint" />
            <mxPoint x="240" y="1362.5" as="targetPoint" />
          </mxGeometry>
        </mxCell>
        <mxCell id="lDHVkYLqutTyOCWwUgQS-211" value="" style="endArrow=classic;html=1;rounded=0;entryX=0.308;entryY=1.025;entryDx=0;entryDy=0;fontFamily=Times New Roman;fontSize=15;exitX=0.875;exitY=0.032;exitDx=0;exitDy=0;exitPerimeter=0;entryPerimeter=0;" parent="1" source="lDHVkYLqutTyOCWwUgQS-206" target="lDHVkYLqutTyOCWwUgQS-205" edge="1">
          <mxGeometry width="50" height="50" relative="1" as="geometry">
            <mxPoint x="250" y="1400" as="sourcePoint" />
            <mxPoint x="290" y="1362.5" as="targetPoint" />
            <Array as="points" />
          </mxGeometry>
        </mxCell>
        <mxCell id="lDHVkYLqutTyOCWwUgQS-212" value="" style="endArrow=classic;html=1;rounded=0;entryX=0.5;entryY=0;entryDx=0;entryDy=0;fontFamily=Times New Roman;exitX=0.25;exitY=1;exitDx=0;exitDy=0;fontSize=15;" parent="1" source="lDHVkYLqutTyOCWwUgQS-206" target="lDHVkYLqutTyOCWwUgQS-207" edge="1">
          <mxGeometry width="50" height="50" relative="1" as="geometry">
            <mxPoint x="140" y="1452.5" as="sourcePoint" />
            <mxPoint x="190" y="1402.5" as="targetPoint" />
          </mxGeometry>
        </mxCell>
        <mxCell id="lDHVkYLqutTyOCWwUgQS-213" value="" style="endArrow=classic;html=1;rounded=0;entryX=0.266;entryY=0.132;entryDx=0;entryDy=0;fontFamily=Times New Roman;fontSize=15;exitX=0.882;exitY=1.043;exitDx=0;exitDy=0;entryPerimeter=0;exitPerimeter=0;" parent="1" source="lDHVkYLqutTyOCWwUgQS-206" target="lDHVkYLqutTyOCWwUgQS-208" edge="1">
          <mxGeometry width="50" height="50" relative="1" as="geometry">
            <mxPoint x="330" y="1340" as="sourcePoint" />
            <mxPoint x="280" y="1402.5" as="targetPoint" />
          </mxGeometry>
        </mxCell>
        <mxCell id="lDHVkYLqutTyOCWwUgQS-215" value="approved" style="ellipse;whiteSpace=wrap;html=1;fontFamily=Times New Roman;" parent="1" vertex="1">
          <mxGeometry x="185" y="1630" width="125" height="70" as="geometry" />
        </mxCell>
        <mxCell id="lDHVkYLqutTyOCWwUgQS-216" value="" style="endArrow=classic;html=1;rounded=0;entryX=0.5;entryY=0;entryDx=0;entryDy=0;fontFamily=Times New Roman;exitX=0.569;exitY=1;exitDx=0;exitDy=0;exitPerimeter=0;" parent="1" source="lDHVkYLqutTyOCWwUgQS-206" target="lDHVkYLqutTyOCWwUgQS-215" edge="1">
          <mxGeometry width="50" height="50" relative="1" as="geometry">
            <mxPoint x="310" y="1442.5" as="sourcePoint" />
            <mxPoint x="310" y="1522.5" as="targetPoint" />
          </mxGeometry>
        </mxCell>
        <mxCell id="lDHVkYLqutTyOCWwUgQS-219" value="hr_questions" style="rounded=0;whiteSpace=wrap;html=1;fontFamily=Times New Roman;fontSize=15;fillColor=#e6d0de;strokeColor=#996185;gradientColor=#d5739d;" parent="1" vertex="1">
          <mxGeometry x="1200" y="257.5" width="140" height="50" as="geometry" />
        </mxCell>
        <mxCell id="lDHVkYLqutTyOCWwUgQS-220" value="&lt;u&gt;id&lt;/u&gt;" style="ellipse;whiteSpace=wrap;html=1;fontFamily=Times New Roman;fontSize=15;" parent="1" vertex="1">
          <mxGeometry x="1030" y="162.5" width="70" height="50" as="geometry" />
        </mxCell>
        <mxCell id="lDHVkYLqutTyOCWwUgQS-221" value="branch" style="ellipse;whiteSpace=wrap;html=1;fontFamily=Times New Roman;fontSize=15;" parent="1" vertex="1">
          <mxGeometry x="1150" y="107.5" width="70" height="50" as="geometry" />
        </mxCell>
        <mxCell id="lDHVkYLqutTyOCWwUgQS-222" value="question_text" style="ellipse;whiteSpace=wrap;html=1;fontFamily=Times New Roman;fontSize=15;" parent="1" vertex="1">
          <mxGeometry x="1260" y="107.5" width="90" height="50" as="geometry" />
        </mxCell>
        <mxCell id="lDHVkYLqutTyOCWwUgQS-223" value="option_A" style="ellipse;whiteSpace=wrap;html=1;fontFamily=Times New Roman;fontSize=15;" parent="1" vertex="1">
          <mxGeometry x="1395" y="167.5" width="80" height="50" as="geometry" />
        </mxCell>
        <mxCell id="lDHVkYLqutTyOCWwUgQS-224" value="option_B" style="ellipse;whiteSpace=wrap;html=1;fontFamily=Times New Roman;fontSize=15;" parent="1" vertex="1">
          <mxGeometry x="1030" y="337.5" width="70" height="50" as="geometry" />
        </mxCell>
        <mxCell id="lDHVkYLqutTyOCWwUgQS-225" value="option_C" style="ellipse;whiteSpace=wrap;html=1;fontFamily=Times New Roman;fontSize=15;" parent="1" vertex="1">
          <mxGeometry x="1160" y="377.5" width="70" height="50" as="geometry" />
        </mxCell>
        <mxCell id="lDHVkYLqutTyOCWwUgQS-226" value="option_D" style="ellipse;whiteSpace=wrap;html=1;fontFamily=Times New Roman;fontSize=15;" parent="1" vertex="1">
          <mxGeometry x="1280" y="377.5" width="80" height="50" as="geometry" />
        </mxCell>
        <mxCell id="lDHVkYLqutTyOCWwUgQS-227" value="correct_answer" style="ellipse;whiteSpace=wrap;html=1;fontFamily=Times New Roman;fontSize=15;" parent="1" vertex="1">
          <mxGeometry x="1395" y="337.5" width="115" height="60" as="geometry" />
        </mxCell>
        <mxCell id="lDHVkYLqutTyOCWwUgQS-228" value="" style="endArrow=classic;html=1;rounded=0;exitX=0;exitY=0.25;exitDx=0;exitDy=0;entryX=0.626;entryY=1.028;entryDx=0;entryDy=0;entryPerimeter=0;fontFamily=Times New Roman;fontSize=15;" parent="1" source="lDHVkYLqutTyOCWwUgQS-219" target="lDHVkYLqutTyOCWwUgQS-220" edge="1">
          <mxGeometry width="50" height="50" relative="1" as="geometry">
            <mxPoint x="1080" y="257.5" as="sourcePoint" />
            <mxPoint x="1090" y="207.5" as="targetPoint" />
            <Array as="points" />
          </mxGeometry>
        </mxCell>
        <mxCell id="lDHVkYLqutTyOCWwUgQS-229" value="" style="endArrow=classic;html=1;rounded=0;entryX=0.5;entryY=1;entryDx=0;entryDy=0;fontFamily=Times New Roman;exitX=0.25;exitY=0;exitDx=0;exitDy=0;fontSize=15;" parent="1" source="lDHVkYLqutTyOCWwUgQS-219" target="lDHVkYLqutTyOCWwUgQS-221" edge="1">
          <mxGeometry width="50" height="50" relative="1" as="geometry">
            <mxPoint x="1110" y="247.5" as="sourcePoint" />
            <mxPoint x="1160" y="197.5" as="targetPoint" />
          </mxGeometry>
        </mxCell>
        <mxCell id="lDHVkYLqutTyOCWwUgQS-230" value="" style="endArrow=classic;html=1;rounded=0;entryX=0.5;entryY=1;entryDx=0;entryDy=0;fontFamily=Times New Roman;exitX=0.614;exitY=0.04;exitDx=0;exitDy=0;exitPerimeter=0;fontSize=15;" parent="1" source="lDHVkYLqutTyOCWwUgQS-219" target="lDHVkYLqutTyOCWwUgQS-222" edge="1">
          <mxGeometry width="50" height="50" relative="1" as="geometry">
            <mxPoint x="1150" y="247.5" as="sourcePoint" />
            <mxPoint x="1200" y="197.5" as="targetPoint" />
          </mxGeometry>
        </mxCell>
        <mxCell id="lDHVkYLqutTyOCWwUgQS-231" value="" style="endArrow=classic;html=1;rounded=0;entryX=0.272;entryY=0.996;entryDx=0;entryDy=0;entryPerimeter=0;fontFamily=Times New Roman;exitX=0.942;exitY=-0.006;exitDx=0;exitDy=0;exitPerimeter=0;fontSize=15;" parent="1" source="lDHVkYLqutTyOCWwUgQS-219" target="lDHVkYLqutTyOCWwUgQS-223" edge="1">
          <mxGeometry width="50" height="50" relative="1" as="geometry">
            <mxPoint x="1190" y="247.5" as="sourcePoint" />
            <mxPoint x="1240" y="197.5" as="targetPoint" />
          </mxGeometry>
        </mxCell>
        <mxCell id="lDHVkYLqutTyOCWwUgQS-232" value="" style="endArrow=classic;html=1;rounded=0;entryX=0.5;entryY=0;entryDx=0;entryDy=0;fontFamily=Times New Roman;exitX=0;exitY=0.75;exitDx=0;exitDy=0;fontSize=15;" parent="1" source="lDHVkYLqutTyOCWwUgQS-219" target="lDHVkYLqutTyOCWwUgQS-224" edge="1">
          <mxGeometry width="50" height="50" relative="1" as="geometry">
            <mxPoint x="1090" y="277.5" as="sourcePoint" />
            <mxPoint x="1140" y="227.5" as="targetPoint" />
          </mxGeometry>
        </mxCell>
        <mxCell id="lDHVkYLqutTyOCWwUgQS-233" value="" style="endArrow=classic;html=1;rounded=0;entryX=0.5;entryY=0;entryDx=0;entryDy=0;fontFamily=Times New Roman;exitX=0.203;exitY=0.989;exitDx=0;exitDy=0;exitPerimeter=0;fontSize=15;" parent="1" source="lDHVkYLqutTyOCWwUgQS-219" target="lDHVkYLqutTyOCWwUgQS-225" edge="1">
          <mxGeometry width="50" height="50" relative="1" as="geometry">
            <mxPoint x="1110" y="297.5" as="sourcePoint" />
            <mxPoint x="1160" y="237.5" as="targetPoint" />
          </mxGeometry>
        </mxCell>
        <mxCell id="lDHVkYLqutTyOCWwUgQS-234" value="" style="endArrow=classic;html=1;rounded=0;entryX=0.5;entryY=0;entryDx=0;entryDy=0;fontFamily=Times New Roman;exitX=0.61;exitY=1;exitDx=0;exitDy=0;exitPerimeter=0;fontSize=15;" parent="1" source="lDHVkYLqutTyOCWwUgQS-219" target="lDHVkYLqutTyOCWwUgQS-226" edge="1">
          <mxGeometry width="50" height="50" relative="1" as="geometry">
            <mxPoint x="1160" y="287.5" as="sourcePoint" />
            <mxPoint x="1210" y="237.5" as="targetPoint" />
          </mxGeometry>
        </mxCell>
        <mxCell id="lDHVkYLqutTyOCWwUgQS-235" value="" style="endArrow=classic;html=1;rounded=0;entryX=0.35;entryY=-0.02;entryDx=0;entryDy=0;entryPerimeter=0;fontFamily=Times New Roman;exitX=1;exitY=0.75;exitDx=0;exitDy=0;fontSize=15;" parent="1" source="lDHVkYLqutTyOCWwUgQS-219" target="lDHVkYLqutTyOCWwUgQS-227" edge="1">
          <mxGeometry width="50" height="50" relative="1" as="geometry">
            <mxPoint x="1200" y="277.5" as="sourcePoint" />
            <mxPoint x="1250" y="227.5" as="targetPoint" />
          </mxGeometry>
        </mxCell>
        <mxCell id="lDHVkYLqutTyOCWwUgQS-236" value="club_requests" style="rounded=0;whiteSpace=wrap;html=1;fontFamily=Times New Roman;fillColor=#e6d0de;strokeColor=#996185;gradientColor=#d5739d;" parent="1" vertex="1">
          <mxGeometry x="720" y="230" width="200" height="50" as="geometry" />
        </mxCell>
        <mxCell id="lDHVkYLqutTyOCWwUgQS-237" value="&lt;u&gt;id&lt;/u&gt;" style="ellipse;whiteSpace=wrap;html=1;fontFamily=Times New Roman;fontSize=15;" parent="1" vertex="1">
          <mxGeometry x="665" y="90" width="70" height="50" as="geometry" />
        </mxCell>
        <mxCell id="lDHVkYLqutTyOCWwUgQS-238" value="name" style="ellipse;whiteSpace=wrap;html=1;fontFamily=Times New Roman;fontSize=15;" parent="1" vertex="1">
          <mxGeometry x="900" y="90" width="90" height="50" as="geometry" />
        </mxCell>
        <mxCell id="lDHVkYLqutTyOCWwUgQS-239" value="club_id" style="ellipse;whiteSpace=wrap;html=1;fontFamily=Times New Roman;" parent="1" vertex="1">
          <mxGeometry x="880" y="367.5" width="100" height="60" as="geometry" />
        </mxCell>
        <mxCell id="lDHVkYLqutTyOCWwUgQS-240" value="password" style="ellipse;whiteSpace=wrap;html=1;fontFamily=Times New Roman;" parent="1" vertex="1">
          <mxGeometry x="650" y="365" width="110" height="65" as="geometry" />
        </mxCell>
        <mxCell id="lDHVkYLqutTyOCWwUgQS-243" value="" style="endArrow=classic;html=1;rounded=0;entryX=0.5;entryY=1;entryDx=0;entryDy=0;exitX=0.822;exitY=-0.025;exitDx=0;exitDy=0;exitPerimeter=0;fontFamily=Times New Roman;" parent="1" source="lDHVkYLqutTyOCWwUgQS-236" target="lDHVkYLqutTyOCWwUgQS-238" edge="1">
          <mxGeometry width="50" height="50" relative="1" as="geometry">
            <mxPoint x="890" y="230" as="sourcePoint" />
            <mxPoint x="940" y="180" as="targetPoint" />
          </mxGeometry>
        </mxCell>
        <mxCell id="lDHVkYLqutTyOCWwUgQS-244" value="" style="endArrow=classic;html=1;rounded=0;entryX=0.5;entryY=1;entryDx=0;entryDy=0;exitX=0.123;exitY=-0.025;exitDx=0;exitDy=0;exitPerimeter=0;fontFamily=Times New Roman;" parent="1" source="lDHVkYLqutTyOCWwUgQS-236" target="lDHVkYLqutTyOCWwUgQS-237" edge="1">
          <mxGeometry width="50" height="50" relative="1" as="geometry">
            <mxPoint x="739" y="230" as="sourcePoint" />
            <mxPoint x="785" y="180" as="targetPoint" />
          </mxGeometry>
        </mxCell>
        <mxCell id="lDHVkYLqutTyOCWwUgQS-245" value="" style="endArrow=classic;html=1;rounded=0;entryX=0.5;entryY=0;entryDx=0;entryDy=0;exitX=0.175;exitY=1.032;exitDx=0;exitDy=0;exitPerimeter=0;fontFamily=Times New Roman;" parent="1" source="lDHVkYLqutTyOCWwUgQS-236" target="lDHVkYLqutTyOCWwUgQS-240" edge="1">
          <mxGeometry width="50" height="50" relative="1" as="geometry">
            <mxPoint x="745" y="280" as="sourcePoint" />
            <mxPoint x="795" y="230" as="targetPoint" />
          </mxGeometry>
        </mxCell>
        <mxCell id="lDHVkYLqutTyOCWwUgQS-246" value="" style="endArrow=classic;html=1;rounded=0;entryX=0.382;entryY=-0.014;entryDx=0;entryDy=0;entryPerimeter=0;exitX=0.75;exitY=1;exitDx=0;exitDy=0;fontFamily=Times New Roman;" parent="1" source="lDHVkYLqutTyOCWwUgQS-236" target="lDHVkYLqutTyOCWwUgQS-239" edge="1">
          <mxGeometry width="50" height="50" relative="1" as="geometry">
            <mxPoint x="872.5" y="280" as="sourcePoint" />
            <mxPoint x="922.5" y="230" as="targetPoint" />
          </mxGeometry>
        </mxCell>
        <mxCell id="lDHVkYLqutTyOCWwUgQS-247" value="club_announcements" style="rounded=0;whiteSpace=wrap;html=1;fontFamily=Times New Roman;fillColor=#e6d0de;gradientColor=#d5739d;strokeColor=#996185;" parent="1" vertex="1">
          <mxGeometry x="-680" y="2059.5" width="180" height="50" as="geometry" />
        </mxCell>
        <mxCell id="lDHVkYLqutTyOCWwUgQS-248" value="&lt;u&gt;id&lt;/u&gt;" style="ellipse;whiteSpace=wrap;html=1;fontFamily=Times New Roman;fontSize=15;" parent="1" vertex="1">
          <mxGeometry x="-780" y="1942" width="70" height="50" as="geometry" />
        </mxCell>
        <mxCell id="lDHVkYLqutTyOCWwUgQS-249" value="club_id" style="ellipse;whiteSpace=wrap;html=1;fontFamily=Times New Roman;" parent="1" vertex="1">
          <mxGeometry x="-655" y="1889.5" width="100" height="60" as="geometry" />
        </mxCell>
        <mxCell id="lDHVkYLqutTyOCWwUgQS-250" value="title" style="ellipse;whiteSpace=wrap;html=1;fontFamily=Times New Roman;fontSize=15;" parent="1" vertex="1">
          <mxGeometry x="-513" y="1910" width="100" height="55" as="geometry" />
        </mxCell>
        <mxCell id="lDHVkYLqutTyOCWwUgQS-251" value="content" style="ellipse;whiteSpace=wrap;html=1;fontFamily=Times New Roman;" parent="1" vertex="1">
          <mxGeometry x="-555" y="2190" width="100" height="60" as="geometry" />
        </mxCell>
        <mxCell id="lDHVkYLqutTyOCWwUgQS-252" value="created_at" style="ellipse;whiteSpace=wrap;html=1;fontFamily=Times New Roman;" parent="1" vertex="1">
          <mxGeometry x="-750" y="2177" width="90" height="60" as="geometry" />
        </mxCell>
        <mxCell id="lDHVkYLqutTyOCWwUgQS-255" value="" style="endArrow=classic;html=1;rounded=0;exitX=0.543;exitY=-0.046;exitDx=0;exitDy=0;entryX=0.5;entryY=1;entryDx=0;entryDy=0;exitPerimeter=0;fontFamily=Times New Roman;" parent="1" source="lDHVkYLqutTyOCWwUgQS-247" target="lDHVkYLqutTyOCWwUgQS-249" edge="1">
          <mxGeometry width="50" height="50" relative="1" as="geometry">
            <mxPoint x="-460" y="2052" as="sourcePoint" />
            <mxPoint x="-450" y="1942" as="targetPoint" />
          </mxGeometry>
        </mxCell>
        <mxCell id="lDHVkYLqutTyOCWwUgQS-258" value="" style="endArrow=classic;html=1;rounded=0;entryX=0.5;entryY=1;entryDx=0;entryDy=0;exitX=0.856;exitY=-0.029;exitDx=0;exitDy=0;exitPerimeter=0;fontFamily=Times New Roman;" parent="1" source="lDHVkYLqutTyOCWwUgQS-247" target="lDHVkYLqutTyOCWwUgQS-250" edge="1">
          <mxGeometry width="50" height="50" relative="1" as="geometry">
            <mxPoint x="-390" y="2052" as="sourcePoint" />
            <mxPoint x="-340" y="2002" as="targetPoint" />
          </mxGeometry>
        </mxCell>
        <mxCell id="lDHVkYLqutTyOCWwUgQS-259" value="" style="endArrow=classic;html=1;rounded=0;entryX=1;entryY=1;entryDx=0;entryDy=0;exitX=0.131;exitY=-0.013;exitDx=0;exitDy=0;exitPerimeter=0;fontFamily=Times New Roman;" parent="1" source="lDHVkYLqutTyOCWwUgQS-247" target="lDHVkYLqutTyOCWwUgQS-248" edge="1">
          <mxGeometry width="50" height="50" relative="1" as="geometry">
            <mxPoint x="-530" y="2062" as="sourcePoint" />
            <mxPoint x="-480" y="2012" as="targetPoint" />
          </mxGeometry>
        </mxCell>
        <mxCell id="lDHVkYLqutTyOCWwUgQS-260" value="" style="endArrow=classic;html=1;rounded=0;entryX=1;entryY=0;entryDx=0;entryDy=0;fontFamily=Times New Roman;exitX=0.422;exitY=1.01;exitDx=0;exitDy=0;exitPerimeter=0;" parent="1" source="lDHVkYLqutTyOCWwUgQS-247" target="lDHVkYLqutTyOCWwUgQS-252" edge="1">
          <mxGeometry width="50" height="50" relative="1" as="geometry">
            <mxPoint x="-660" y="2130" as="sourcePoint" />
            <mxPoint x="-480" y="2052" as="targetPoint" />
          </mxGeometry>
        </mxCell>
        <mxCell id="lDHVkYLqutTyOCWwUgQS-261" value="" style="endArrow=classic;html=1;rounded=0;entryX=0.5;entryY=0;entryDx=0;entryDy=0;exitX=0.75;exitY=1;exitDx=0;exitDy=0;fontFamily=Times New Roman;" parent="1" source="lDHVkYLqutTyOCWwUgQS-247" target="lDHVkYLqutTyOCWwUgQS-251" edge="1">
          <mxGeometry width="50" height="50" relative="1" as="geometry">
            <mxPoint x="-405" y="2102" as="sourcePoint" />
            <mxPoint x="-355" y="2052" as="targetPoint" />
          </mxGeometry>
        </mxCell>
        <mxCell id="lDHVkYLqutTyOCWwUgQS-262" value="clubs" style="rounded=0;whiteSpace=wrap;html=1;fontFamily=Times New Roman;fillColor=#e6d0de;gradientColor=#d5739d;strokeColor=#996185;" parent="1" vertex="1">
          <mxGeometry x="145" y="2057" width="140" height="40" as="geometry" />
        </mxCell>
        <mxCell id="lDHVkYLqutTyOCWwUgQS-263" value="posts" style="shape=rhombus;perimeter=rhombusPerimeter;whiteSpace=wrap;html=1;align=center;fontFamily=Times New Roman;fillColor=#008a00;strokeColor=#005700;fontColor=#ffffff;" parent="1" vertex="1">
          <mxGeometry x="-292.5" y="2220" width="190" height="85" as="geometry" />
        </mxCell>
        <mxCell id="lDHVkYLqutTyOCWwUgQS-267" value="" style="endArrow=none;html=1;rounded=0;exitX=1;exitY=0.5;exitDx=0;exitDy=0;fontFamily=Times New Roman;entryX=0;entryY=0.5;entryDx=0;entryDy=0;" parent="1" source="lDHVkYLqutTyOCWwUgQS-247" target="lDHVkYLqutTyOCWwUgQS-263" edge="1">
          <mxGeometry width="50" height="50" relative="1" as="geometry">
            <mxPoint x="-365" y="2082" as="sourcePoint" />
            <mxPoint x="-300" y="2240" as="targetPoint" />
          </mxGeometry>
        </mxCell>
        <mxCell id="lDHVkYLqutTyOCWwUgQS-268" value="" style="endArrow=none;html=1;rounded=0;entryX=0;entryY=0.5;entryDx=0;entryDy=0;exitX=1;exitY=0.5;exitDx=0;exitDy=0;fontFamily=Times New Roman;" parent="1" source="lDHVkYLqutTyOCWwUgQS-263" target="lDHVkYLqutTyOCWwUgQS-262" edge="1">
          <mxGeometry width="50" height="50" relative="1" as="geometry">
            <mxPoint x="-50" y="2072" as="sourcePoint" />
            <mxPoint y="2022" as="targetPoint" />
          </mxGeometry>
        </mxCell>
        <mxCell id="lDHVkYLqutTyOCWwUgQS-269" value="&lt;u&gt;id&lt;/u&gt;" style="ellipse;whiteSpace=wrap;html=1;fontFamily=Times New Roman;fontSize=15;" parent="1" vertex="1">
          <mxGeometry x="195" y="1839.5" width="70" height="50" as="geometry" />
        </mxCell>
        <mxCell id="lDHVkYLqutTyOCWwUgQS-270" value="name" style="ellipse;whiteSpace=wrap;html=1;fontFamily=Times New Roman;fontSize=15;" parent="1" vertex="1">
          <mxGeometry x="30" y="2400" width="90" height="50" as="geometry" />
        </mxCell>
        <mxCell id="lDHVkYLqutTyOCWwUgQS-271" value="club_id" style="ellipse;whiteSpace=wrap;html=1;fontFamily=Times New Roman;" parent="1" vertex="1">
          <mxGeometry x="181" y="2400" width="100" height="60" as="geometry" />
        </mxCell>
        <mxCell id="lDHVkYLqutTyOCWwUgQS-272" value="password" style="ellipse;whiteSpace=wrap;html=1;fontFamily=Times New Roman;" parent="1" vertex="1">
          <mxGeometry x="-102.5" y="2032" width="110" height="65" as="geometry" />
        </mxCell>
        <mxCell id="lDHVkYLqutTyOCWwUgQS-273" value="approved" style="ellipse;whiteSpace=wrap;html=1;fontFamily=Times New Roman;" parent="1" vertex="1">
          <mxGeometry x="-77.5" y="2315" width="117.5" height="65" as="geometry" />
        </mxCell>
        <mxCell id="lDHVkYLqutTyOCWwUgQS-274" value="description" style="ellipse;whiteSpace=wrap;html=1;fontFamily=Times New Roman;" parent="1" vertex="1">
          <mxGeometry x="285" y="1849.5" width="116" height="70" as="geometry" />
        </mxCell>
        <mxCell id="lDHVkYLqutTyOCWwUgQS-275" value="contact_email" style="ellipse;whiteSpace=wrap;html=1;fontFamily=Times New Roman;" parent="1" vertex="1">
          <mxGeometry x="399" y="2317.5" width="120" height="60" as="geometry" />
        </mxCell>
        <mxCell id="lDHVkYLqutTyOCWwUgQS-276" value="logo_url" style="ellipse;whiteSpace=wrap;html=1;fontFamily=Times New Roman;" parent="1" vertex="1">
          <mxGeometry x="310" y="2396.25" width="110" height="57.5" as="geometry" />
        </mxCell>
        <mxCell id="lDHVkYLqutTyOCWwUgQS-278" value="" style="endArrow=classic;html=1;rounded=0;exitX=0;exitY=0.25;exitDx=0;exitDy=0;fontFamily=Times New Roman;entryX=1;entryY=0.5;entryDx=0;entryDy=0;" parent="1" source="lDHVkYLqutTyOCWwUgQS-262" target="lDHVkYLqutTyOCWwUgQS-272" edge="1">
          <mxGeometry width="50" height="50" relative="1" as="geometry">
            <mxPoint x="180" y="2057" as="sourcePoint" />
            <mxPoint x="10" y="2067" as="targetPoint" />
          </mxGeometry>
        </mxCell>
        <mxCell id="lDHVkYLqutTyOCWwUgQS-279" value="" style="endArrow=classic;html=1;rounded=0;exitX=0.5;exitY=0;exitDx=0;exitDy=0;entryX=0.5;entryY=1;entryDx=0;entryDy=0;fontFamily=Times New Roman;" parent="1" source="lDHVkYLqutTyOCWwUgQS-262" target="lDHVkYLqutTyOCWwUgQS-269" edge="1">
          <mxGeometry width="50" height="50" relative="1" as="geometry">
            <mxPoint x="240" y="2092" as="sourcePoint" />
            <mxPoint x="240" y="1982" as="targetPoint" />
          </mxGeometry>
        </mxCell>
        <mxCell id="lDHVkYLqutTyOCWwUgQS-280" value="" style="endArrow=classic;html=1;rounded=0;entryX=0.342;entryY=1.031;entryDx=0;entryDy=0;fontFamily=Times New Roman;exitX=0.89;exitY=0.029;exitDx=0;exitDy=0;exitPerimeter=0;entryPerimeter=0;" parent="1" source="lDHVkYLqutTyOCWwUgQS-262" target="lDHVkYLqutTyOCWwUgQS-274" edge="1">
          <mxGeometry width="50" height="50" relative="1" as="geometry">
            <mxPoint x="270" y="2050" as="sourcePoint" />
            <mxPoint x="275" y="2007" as="targetPoint" />
          </mxGeometry>
        </mxCell>
        <mxCell id="lDHVkYLqutTyOCWwUgQS-281" value="" style="endArrow=classic;html=1;rounded=0;exitX=0.75;exitY=1;exitDx=0;exitDy=0;entryX=0.236;entryY=0.114;entryDx=0;entryDy=0;fontFamily=Times New Roman;entryPerimeter=0;" parent="1" source="lDHVkYLqutTyOCWwUgQS-262" target="lDHVkYLqutTyOCWwUgQS-275" edge="1">
          <mxGeometry width="50" height="50" relative="1" as="geometry">
            <mxPoint x="285" y="2057" as="sourcePoint" />
            <mxPoint x="335" y="2007" as="targetPoint" />
          </mxGeometry>
        </mxCell>
        <mxCell id="lDHVkYLqutTyOCWwUgQS-282" value="" style="endArrow=classic;html=1;rounded=0;entryX=0.689;entryY=0.074;entryDx=0;entryDy=0;entryPerimeter=0;exitX=0.093;exitY=0.99;exitDx=0;exitDy=0;fontFamily=Times New Roman;exitPerimeter=0;" parent="1" source="lDHVkYLqutTyOCWwUgQS-262" target="lDHVkYLqutTyOCWwUgQS-273" edge="1">
          <mxGeometry width="50" height="50" relative="1" as="geometry">
            <mxPoint x="145" y="2097" as="sourcePoint" />
            <mxPoint x="195" y="2047" as="targetPoint" />
          </mxGeometry>
        </mxCell>
        <mxCell id="lDHVkYLqutTyOCWwUgQS-283" value="" style="endArrow=classic;html=1;rounded=0;entryX=0.5;entryY=0;entryDx=0;entryDy=0;exitX=0.25;exitY=1;exitDx=0;exitDy=0;fontFamily=Times New Roman;" parent="1" source="lDHVkYLqutTyOCWwUgQS-262" target="lDHVkYLqutTyOCWwUgQS-270" edge="1">
          <mxGeometry width="50" height="50" relative="1" as="geometry">
            <mxPoint x="185" y="2097" as="sourcePoint" />
            <mxPoint x="235" y="2047" as="targetPoint" />
          </mxGeometry>
        </mxCell>
        <mxCell id="lDHVkYLqutTyOCWwUgQS-284" value="" style="endArrow=classic;html=1;rounded=0;entryX=0.5;entryY=0;entryDx=0;entryDy=0;exitX=0.385;exitY=1;exitDx=0;exitDy=0;exitPerimeter=0;fontFamily=Times New Roman;" parent="1" source="lDHVkYLqutTyOCWwUgQS-262" target="lDHVkYLqutTyOCWwUgQS-271" edge="1">
          <mxGeometry width="50" height="50" relative="1" as="geometry">
            <mxPoint x="235" y="2097" as="sourcePoint" />
            <mxPoint x="285" y="2047" as="targetPoint" />
          </mxGeometry>
        </mxCell>
        <mxCell id="lDHVkYLqutTyOCWwUgQS-285" value="" style="endArrow=classic;html=1;rounded=0;entryX=0.291;entryY=0.103;entryDx=0;entryDy=0;exitX=0.5;exitY=1;exitDx=0;exitDy=0;entryPerimeter=0;fontFamily=Times New Roman;" parent="1" source="lDHVkYLqutTyOCWwUgQS-262" target="lDHVkYLqutTyOCWwUgQS-276" edge="1">
          <mxGeometry width="50" height="50" relative="1" as="geometry">
            <mxPoint x="285" y="2097" as="sourcePoint" />
            <mxPoint x="335" y="2047" as="targetPoint" />
          </mxGeometry>
        </mxCell>
        <mxCell id="lDHVkYLqutTyOCWwUgQS-286" value="organises" style="shape=rhombus;perimeter=rhombusPerimeter;whiteSpace=wrap;html=1;align=center;fontFamily=Times New Roman;fillColor=#008a00;strokeColor=#005700;fontColor=#ffffff;" parent="1" vertex="1">
          <mxGeometry x="610" y="2273" width="135" height="65" as="geometry" />
        </mxCell>
        <mxCell id="lDHVkYLqutTyOCWwUgQS-288" value="" style="endArrow=none;html=1;rounded=0;entryX=0;entryY=0.5;entryDx=0;entryDy=0;exitX=1;exitY=0.5;exitDx=0;exitDy=0;fontFamily=Times New Roman;" parent="1" source="lDHVkYLqutTyOCWwUgQS-262" target="lDHVkYLqutTyOCWwUgQS-286" edge="1">
          <mxGeometry width="50" height="50" relative="1" as="geometry">
            <mxPoint x="285" y="2084.5" as="sourcePoint" />
            <mxPoint x="335" y="2034.5" as="targetPoint" />
          </mxGeometry>
        </mxCell>
        <mxCell id="lDHVkYLqutTyOCWwUgQS-289" value="" style="endArrow=none;html=1;rounded=0;exitX=1;exitY=0.5;exitDx=0;exitDy=0;entryX=0;entryY=0.5;entryDx=0;entryDy=0;fontFamily=Times New Roman;" parent="1" source="lDHVkYLqutTyOCWwUgQS-286" target="lDHVkYLqutTyOCWwUgQS-290" edge="1">
          <mxGeometry width="50" height="50" relative="1" as="geometry">
            <mxPoint x="860" y="2062.5" as="sourcePoint" />
            <mxPoint x="955" y="2067.5" as="targetPoint" />
          </mxGeometry>
        </mxCell>
        <mxCell id="lDHVkYLqutTyOCWwUgQS-290" value="club_activites" style="rounded=0;whiteSpace=wrap;html=1;fontFamily=Times New Roman;fillColor=#e6d0de;gradientColor=#d5739d;strokeColor=#996185;" parent="1" vertex="1">
          <mxGeometry x="998.5" y="2107.5" width="175" height="40" as="geometry" />
        </mxCell>
        <mxCell id="lDHVkYLqutTyOCWwUgQS-291" value="&lt;u&gt;id&lt;/u&gt;" style="ellipse;whiteSpace=wrap;html=1;fontFamily=Times New Roman;fontSize=15;" parent="1" vertex="1">
          <mxGeometry x="1280" y="2147.5" width="70" height="50" as="geometry" />
        </mxCell>
        <mxCell id="lDHVkYLqutTyOCWwUgQS-292" value="club_id" style="ellipse;whiteSpace=wrap;html=1;fontFamily=Times New Roman;" parent="1" vertex="1">
          <mxGeometry x="1226.5" y="2218" width="100" height="60" as="geometry" />
        </mxCell>
        <mxCell id="lDHVkYLqutTyOCWwUgQS-293" value="title" style="ellipse;whiteSpace=wrap;html=1;fontFamily=Times New Roman;fontSize=15;" parent="1" vertex="1">
          <mxGeometry x="1090" y="2275" width="100" height="55" as="geometry" />
        </mxCell>
        <mxCell id="lDHVkYLqutTyOCWwUgQS-294" value="content" style="ellipse;whiteSpace=wrap;html=1;fontFamily=Times New Roman;" parent="1" vertex="1">
          <mxGeometry x="970" y="2275" width="100" height="60" as="geometry" />
        </mxCell>
        <mxCell id="lDHVkYLqutTyOCWwUgQS-295" value="created_at" style="ellipse;whiteSpace=wrap;html=1;fontFamily=Times New Roman;" parent="1" vertex="1">
          <mxGeometry x="870" y="2250" width="90" height="60" as="geometry" />
        </mxCell>
        <mxCell id="lDHVkYLqutTyOCWwUgQS-296" value="" style="endArrow=classic;html=1;rounded=0;exitX=0.75;exitY=1;exitDx=0;exitDy=0;entryX=0;entryY=0;entryDx=0;entryDy=0;fontFamily=Times New Roman;" parent="1" source="lDHVkYLqutTyOCWwUgQS-290" target="lDHVkYLqutTyOCWwUgQS-292" edge="1">
          <mxGeometry width="50" height="50" relative="1" as="geometry">
            <mxPoint x="1083.5" y="2102.5" as="sourcePoint" />
            <mxPoint x="1093.5" y="1992.5" as="targetPoint" />
          </mxGeometry>
        </mxCell>
        <mxCell id="lDHVkYLqutTyOCWwUgQS-297" value="" style="endArrow=classic;html=1;rounded=0;entryX=0.341;entryY=0.071;entryDx=0;entryDy=0;exitX=0.5;exitY=1;exitDx=0;exitDy=0;fontFamily=Times New Roman;entryPerimeter=0;" parent="1" source="lDHVkYLqutTyOCWwUgQS-290" target="lDHVkYLqutTyOCWwUgQS-293" edge="1">
          <mxGeometry width="50" height="50" relative="1" as="geometry">
            <mxPoint x="1153.5" y="2102.5" as="sourcePoint" />
            <mxPoint x="1203.5" y="2052.5" as="targetPoint" />
          </mxGeometry>
        </mxCell>
        <mxCell id="lDHVkYLqutTyOCWwUgQS-298" value="" style="endArrow=classic;html=1;rounded=0;entryX=0;entryY=0.5;entryDx=0;entryDy=0;exitX=1;exitY=0.75;exitDx=0;exitDy=0;fontFamily=Times New Roman;" parent="1" source="lDHVkYLqutTyOCWwUgQS-290" target="lDHVkYLqutTyOCWwUgQS-291" edge="1">
          <mxGeometry width="50" height="50" relative="1" as="geometry">
            <mxPoint x="1013.5" y="2112.5" as="sourcePoint" />
            <mxPoint x="1063.5" y="2062.5" as="targetPoint" />
          </mxGeometry>
        </mxCell>
        <mxCell id="lDHVkYLqutTyOCWwUgQS-299" value="" style="endArrow=classic;html=1;rounded=0;entryX=0.5;entryY=0;entryDx=0;entryDy=0;fontFamily=Times New Roman;exitX=0;exitY=1;exitDx=0;exitDy=0;" parent="1" source="lDHVkYLqutTyOCWwUgQS-290" target="lDHVkYLqutTyOCWwUgQS-295" edge="1">
          <mxGeometry width="50" height="50" relative="1" as="geometry">
            <mxPoint x="1000" y="2160" as="sourcePoint" />
            <mxPoint x="1063.5" y="2102.5" as="targetPoint" />
          </mxGeometry>
        </mxCell>
        <mxCell id="lDHVkYLqutTyOCWwUgQS-300" value="" style="endArrow=classic;html=1;rounded=0;entryX=0.5;entryY=0;entryDx=0;entryDy=0;exitX=0.25;exitY=1;exitDx=0;exitDy=0;fontFamily=Times New Roman;" parent="1" source="lDHVkYLqutTyOCWwUgQS-290" target="lDHVkYLqutTyOCWwUgQS-294" edge="1">
          <mxGeometry width="50" height="50" relative="1" as="geometry">
            <mxPoint x="1138.5" y="2152.5" as="sourcePoint" />
            <mxPoint x="1188.5" y="2102.5" as="targetPoint" />
          </mxGeometry>
        </mxCell>
        <mxCell id="RXMnE6-SKneTDQC4wHI7-1" value="president_usn" style="ellipse;whiteSpace=wrap;html=1;fontFamily=Times New Roman;" parent="1" vertex="1">
          <mxGeometry x="56" y="1859.5" width="110" height="68" as="geometry" />
        </mxCell>
        <mxCell id="RXMnE6-SKneTDQC4wHI7-2" value="" style="endArrow=classic;html=1;rounded=0;entryX=0.6;entryY=1.003;entryDx=0;entryDy=0;exitX=0.25;exitY=0;exitDx=0;exitDy=0;fontFamily=Times New Roman;entryPerimeter=0;" parent="1" source="lDHVkYLqutTyOCWwUgQS-262" target="RXMnE6-SKneTDQC4wHI7-1" edge="1">
          <mxGeometry width="50" height="50" relative="1" as="geometry">
            <mxPoint x="265" y="2057" as="sourcePoint" />
            <mxPoint x="315" y="2007" as="targetPoint" />
          </mxGeometry>
        </mxCell>
        <mxCell id="RXMnE6-SKneTDQC4wHI7-3" value="president_of" style="shape=rhombus;perimeter=rhombusPerimeter;whiteSpace=wrap;html=1;align=center;fontFamily=Times New Roman;fillColor=#008a00;strokeColor=#005700;fontColor=#ffffff;" parent="1" vertex="1">
          <mxGeometry x="-155" y="1709.5" width="120" height="60" as="geometry" />
        </mxCell>
        <mxCell id="RXMnE6-SKneTDQC4wHI7-5" value="" style="endArrow=none;html=1;rounded=0;entryX=0;entryY=1;entryDx=0;entryDy=0;exitX=0.5;exitY=0;exitDx=0;exitDy=0;fontFamily=Times New Roman;" parent="1" source="RXMnE6-SKneTDQC4wHI7-3" target="lDHVkYLqutTyOCWwUgQS-206" edge="1">
          <mxGeometry width="50" height="50" relative="1" as="geometry">
            <mxPoint x="265" y="1512.5" as="sourcePoint" />
            <mxPoint x="315" y="1462.5" as="targetPoint" />
          </mxGeometry>
        </mxCell>
        <mxCell id="RXMnE6-SKneTDQC4wHI7-6" value="" style="endArrow=none;html=1;rounded=0;entryX=0.5;entryY=1;entryDx=0;entryDy=0;fontFamily=Times New Roman;exitX=0;exitY=0;exitDx=0;exitDy=0;" parent="1" source="lDHVkYLqutTyOCWwUgQS-262" target="RXMnE6-SKneTDQC4wHI7-3" edge="1">
          <mxGeometry width="50" height="50" relative="1" as="geometry">
            <mxPoint x="140" y="2060" as="sourcePoint" />
            <mxPoint x="265" y="1770" as="targetPoint" />
          </mxGeometry>
        </mxCell>
        <mxCell id="RXMnE6-SKneTDQC4wHI7-7" value="club_members" style="rounded=0;whiteSpace=wrap;html=1;fontFamily=Times New Roman;fillColor=#e6d0de;gradientColor=#d5739d;strokeColor=#996185;" parent="1" vertex="1">
          <mxGeometry x="949" y="1930.5" width="140" height="47.5" as="geometry" />
        </mxCell>
        <mxCell id="RXMnE6-SKneTDQC4wHI7-8" value="&lt;u&gt;id&lt;/u&gt;" style="ellipse;whiteSpace=wrap;html=1;fontFamily=Times New Roman;fontSize=15;" parent="1" vertex="1">
          <mxGeometry x="1255" y="1939" width="70" height="50" as="geometry" />
        </mxCell>
        <mxCell id="RXMnE6-SKneTDQC4wHI7-9" value="club_id" style="ellipse;whiteSpace=wrap;html=1;fontFamily=Times New Roman;" parent="1" vertex="1">
          <mxGeometry x="1240" y="1859.5" width="100" height="60" as="geometry" />
        </mxCell>
        <mxCell id="RXMnE6-SKneTDQC4wHI7-10" value="join_date" style="ellipse;whiteSpace=wrap;html=1;fontFamily=Times New Roman;" parent="1" vertex="1">
          <mxGeometry x="1195" y="2009.5" width="100" height="60" as="geometry" />
        </mxCell>
        <mxCell id="RXMnE6-SKneTDQC4wHI7-12" value="" style="endArrow=classic;html=1;rounded=0;entryX=0;entryY=0.5;entryDx=0;entryDy=0;exitX=1;exitY=0.75;exitDx=0;exitDy=0;fontFamily=Times New Roman;" parent="1" source="RXMnE6-SKneTDQC4wHI7-7" target="RXMnE6-SKneTDQC4wHI7-8" edge="1">
          <mxGeometry width="50" height="50" relative="1" as="geometry">
            <mxPoint x="1120" y="1971.75" as="sourcePoint" />
            <mxPoint x="1170" y="1921.75" as="targetPoint" />
          </mxGeometry>
        </mxCell>
        <mxCell id="RXMnE6-SKneTDQC4wHI7-13" value="" style="endArrow=classic;html=1;rounded=0;entryX=0;entryY=1;entryDx=0;entryDy=0;exitX=1;exitY=0.25;exitDx=0;exitDy=0;fontFamily=Times New Roman;" parent="1" source="RXMnE6-SKneTDQC4wHI7-7" target="RXMnE6-SKneTDQC4wHI7-9" edge="1">
          <mxGeometry width="50" height="50" relative="1" as="geometry">
            <mxPoint x="1160" y="1971.75" as="sourcePoint" />
            <mxPoint x="1210" y="1921.75" as="targetPoint" />
          </mxGeometry>
        </mxCell>
        <mxCell id="RXMnE6-SKneTDQC4wHI7-14" value="" style="endArrow=classic;html=1;rounded=0;entryX=0;entryY=0.5;entryDx=0;entryDy=0;exitX=0.5;exitY=1;exitDx=0;exitDy=0;fontFamily=Times New Roman;" parent="1" source="RXMnE6-SKneTDQC4wHI7-7" target="RXMnE6-SKneTDQC4wHI7-10" edge="1">
          <mxGeometry width="50" height="50" relative="1" as="geometry">
            <mxPoint x="1064" y="1971.75" as="sourcePoint" />
            <mxPoint x="1114" y="1921.75" as="targetPoint" />
          </mxGeometry>
        </mxCell>
        <mxCell id="RXMnE6-SKneTDQC4wHI7-15" value="roles" style="ellipse;whiteSpace=wrap;html=1;fontFamily=Times New Roman;" parent="1" vertex="1">
          <mxGeometry x="1055" y="1769.5" width="90" height="57.5" as="geometry" />
        </mxCell>
        <mxCell id="RXMnE6-SKneTDQC4wHI7-16" value="usn" style="ellipse;whiteSpace=wrap;html=1;fontFamily=Times New Roman;" parent="1" vertex="1">
          <mxGeometry x="1150" y="1809.5" width="85" height="60" as="geometry" />
        </mxCell>
        <mxCell id="RXMnE6-SKneTDQC4wHI7-18" value="" style="endArrow=classic;html=1;rounded=0;entryX=0.5;entryY=1;entryDx=0;entryDy=0;exitX=0.66;exitY=0.053;exitDx=0;exitDy=0;fontFamily=Times New Roman;exitPerimeter=0;" parent="1" source="RXMnE6-SKneTDQC4wHI7-7" target="RXMnE6-SKneTDQC4wHI7-15" edge="1">
          <mxGeometry width="50" height="50" relative="1" as="geometry">
            <mxPoint x="1190" y="1940.5" as="sourcePoint" />
            <mxPoint x="1240" y="1890.5" as="targetPoint" />
          </mxGeometry>
        </mxCell>
        <mxCell id="RXMnE6-SKneTDQC4wHI7-19" value="" style="endArrow=classic;html=1;rounded=0;entryX=0.5;entryY=1;entryDx=0;entryDy=0;exitX=0.855;exitY=-0.018;exitDx=0;exitDy=0;fontFamily=Times New Roman;exitPerimeter=0;" parent="1" source="RXMnE6-SKneTDQC4wHI7-7" target="RXMnE6-SKneTDQC4wHI7-16" edge="1">
          <mxGeometry width="50" height="50" relative="1" as="geometry">
            <mxPoint x="1190" y="1958" as="sourcePoint" />
            <mxPoint x="1240" y="1908" as="targetPoint" />
          </mxGeometry>
        </mxCell>
        <mxCell id="RXMnE6-SKneTDQC4wHI7-20" value="members_of" style="shape=rhombus;perimeter=rhombusPerimeter;whiteSpace=wrap;html=1;align=center;fontFamily=Times New Roman;fillColor=#008a00;strokeColor=#005700;fontColor=#ffffff;" parent="1" vertex="1">
          <mxGeometry x="669.5" y="1445" width="120" height="60" as="geometry" />
        </mxCell>
        <mxCell id="RXMnE6-SKneTDQC4wHI7-21" value="" style="endArrow=none;html=1;rounded=0;entryX=0;entryY=0.5;entryDx=0;entryDy=0;exitX=1;exitY=0.75;exitDx=0;exitDy=0;fontFamily=Times New Roman;" parent="1" source="lDHVkYLqutTyOCWwUgQS-206" target="RXMnE6-SKneTDQC4wHI7-20" edge="1">
          <mxGeometry width="50" height="50" relative="1" as="geometry">
            <mxPoint x="350" y="1422.5" as="sourcePoint" />
            <mxPoint x="400" y="1372.5" as="targetPoint" />
          </mxGeometry>
        </mxCell>
        <mxCell id="RXMnE6-SKneTDQC4wHI7-23" value="" style="endArrow=none;html=1;rounded=0;exitX=1;exitY=0.5;exitDx=0;exitDy=0;fontFamily=Times New Roman;entryX=0;entryY=0;entryDx=0;entryDy=0;" parent="1" source="RXMnE6-SKneTDQC4wHI7-20" target="RXMnE6-SKneTDQC4wHI7-7" edge="1">
          <mxGeometry width="50" height="50" relative="1" as="geometry">
            <mxPoint x="943" y="1457.5" as="sourcePoint" />
            <mxPoint x="860" y="1370" as="targetPoint" />
          </mxGeometry>
        </mxCell>
        <mxCell id="RXMnE6-SKneTDQC4wHI7-25" value="belongs_to_club" style="shape=rhombus;perimeter=rhombusPerimeter;whiteSpace=wrap;html=1;align=center;fontFamily=Times New Roman;fillColor=#008a00;strokeColor=#005700;fontColor=#ffffff;" parent="1" vertex="1">
          <mxGeometry x="594" y="1799.5" width="166" height="80" as="geometry" />
        </mxCell>
        <mxCell id="RXMnE6-SKneTDQC4wHI7-26" value="" style="endArrow=none;html=1;rounded=0;entryX=0;entryY=0.5;entryDx=0;entryDy=0;exitX=1;exitY=0;exitDx=0;exitDy=0;fontFamily=Times New Roman;" parent="1" source="lDHVkYLqutTyOCWwUgQS-262" target="RXMnE6-SKneTDQC4wHI7-25" edge="1">
          <mxGeometry relative="1" as="geometry">
            <mxPoint x="260" y="1987" as="sourcePoint" />
            <mxPoint x="420" y="1987" as="targetPoint" />
          </mxGeometry>
        </mxCell>
        <mxCell id="RXMnE6-SKneTDQC4wHI7-27" value="" style="endArrow=none;html=1;rounded=0;entryX=0;entryY=0.5;entryDx=0;entryDy=0;exitX=0.939;exitY=0.431;exitDx=0;exitDy=0;fontFamily=Times New Roman;exitPerimeter=0;" parent="1" source="RXMnE6-SKneTDQC4wHI7-25" target="RXMnE6-SKneTDQC4wHI7-7" edge="1">
          <mxGeometry relative="1" as="geometry">
            <mxPoint x="843" y="1787.5" as="sourcePoint" />
            <mxPoint x="1008" y="1757.5" as="targetPoint" />
          </mxGeometry>
        </mxCell>
        <mxCell id="RXMnE6-SKneTDQC4wHI7-28" value="total_questions" style="ellipse;whiteSpace=wrap;html=1;fontFamily=Times New Roman;" parent="1" vertex="1">
          <mxGeometry x="-800" y="1385" width="115" height="67.5" as="geometry" />
        </mxCell>
        <mxCell id="RXMnE6-SKneTDQC4wHI7-29" value="" style="endArrow=classic;html=1;rounded=0;entryX=1;entryY=0.5;entryDx=0;entryDy=0;exitX=0;exitY=0.5;exitDx=0;exitDy=0;fontFamily=Times New Roman;" parent="1" source="lDHVkYLqutTyOCWwUgQS-92" target="RXMnE6-SKneTDQC4wHI7-28" edge="1">
          <mxGeometry width="50" height="50" relative="1" as="geometry">
            <mxPoint x="-545" y="1430" as="sourcePoint" />
            <mxPoint x="-495" y="1380" as="targetPoint" />
          </mxGeometry>
        </mxCell>
        <mxCell id="Gwkm3h_hI-mi0Q3v-ILM-1" value="proficient_in" style="shape=rhombus;perimeter=rhombusPerimeter;whiteSpace=wrap;html=1;align=center;fontFamily=Times New Roman;fillColor=#008a00;strokeColor=#005700;fontColor=#ffffff;" parent="1" vertex="1">
          <mxGeometry x="644" y="1330" width="120" height="60" as="geometry" />
        </mxCell>
        <mxCell id="Gwkm3h_hI-mi0Q3v-ILM-2" value="student_subject_proficiency" style="rounded=0;whiteSpace=wrap;html=1;fontFamily=Times New Roman;fillColor=#e6d0de;strokeColor=#996185;gradientColor=#d5739d;" parent="1" vertex="1">
          <mxGeometry x="780" y="910" width="200" height="50" as="geometry" />
        </mxCell>
        <mxCell id="Gwkm3h_hI-mi0Q3v-ILM-3" value="proficiency" style="ellipse;whiteSpace=wrap;html=1;fontFamily=Times New Roman;" parent="1" vertex="1">
          <mxGeometry x="1120" y="976.25" width="120" height="70" as="geometry" />
        </mxCell>
        <mxCell id="Gwkm3h_hI-mi0Q3v-ILM-4" value="subject_id" style="ellipse;whiteSpace=wrap;html=1;fontFamily=Times New Roman;" parent="1" vertex="1">
          <mxGeometry x="1130" y="892.5" width="100" height="67.5" as="geometry" />
        </mxCell>
        <mxCell id="Gwkm3h_hI-mi0Q3v-ILM-5" value="usn" style="ellipse;whiteSpace=wrap;html=1;fontFamily=Times New Roman;" parent="1" vertex="1">
          <mxGeometry x="1072" y="810" width="100" height="60" as="geometry" />
        </mxCell>
        <mxCell id="Gwkm3h_hI-mi0Q3v-ILM-6" value="&lt;u&gt;id&lt;/u&gt;" style="ellipse;whiteSpace=wrap;html=1;fontFamily=Times New Roman;fontSize=15;" parent="1" vertex="1">
          <mxGeometry x="992" y="763.75" width="80" height="55" as="geometry" />
        </mxCell>
        <mxCell id="Gwkm3h_hI-mi0Q3v-ILM-7" value="" style="endArrow=classic;html=1;rounded=0;entryX=0;entryY=1;entryDx=0;entryDy=0;exitX=0.75;exitY=0;exitDx=0;exitDy=0;fontFamily=Times New Roman;" parent="1" source="Gwkm3h_hI-mi0Q3v-ILM-2" target="Gwkm3h_hI-mi0Q3v-ILM-6" edge="1">
          <mxGeometry width="50" height="50" relative="1" as="geometry">
            <mxPoint x="1219" y="885" as="sourcePoint" />
            <mxPoint x="1259" y="845" as="targetPoint" />
          </mxGeometry>
        </mxCell>
        <mxCell id="Gwkm3h_hI-mi0Q3v-ILM-8" value="" style="endArrow=classic;html=1;rounded=0;entryX=0;entryY=0;entryDx=0;entryDy=0;exitX=1;exitY=0.75;exitDx=0;exitDy=0;fontFamily=Times New Roman;" parent="1" source="Gwkm3h_hI-mi0Q3v-ILM-2" target="Gwkm3h_hI-mi0Q3v-ILM-3" edge="1">
          <mxGeometry width="50" height="50" relative="1" as="geometry">
            <mxPoint x="1114" y="885" as="sourcePoint" />
            <mxPoint x="1164" y="835" as="targetPoint" />
          </mxGeometry>
        </mxCell>
        <mxCell id="Gwkm3h_hI-mi0Q3v-ILM-9" value="" style="endArrow=classic;html=1;rounded=0;entryX=0;entryY=0.5;entryDx=0;entryDy=0;exitX=1;exitY=0.5;exitDx=0;exitDy=0;fontFamily=Times New Roman;" parent="1" source="Gwkm3h_hI-mi0Q3v-ILM-2" target="Gwkm3h_hI-mi0Q3v-ILM-4" edge="1">
          <mxGeometry width="50" height="50" relative="1" as="geometry">
            <mxPoint x="1111" y="965" as="sourcePoint" />
            <mxPoint x="1159" y="969" as="targetPoint" />
          </mxGeometry>
        </mxCell>
        <mxCell id="Gwkm3h_hI-mi0Q3v-ILM-11" value="" style="endArrow=none;html=1;rounded=0;exitX=1;exitY=0.25;exitDx=0;exitDy=0;entryX=0;entryY=0.5;entryDx=0;entryDy=0;fontFamily=Times New Roman;" parent="1" source="lDHVkYLqutTyOCWwUgQS-206" target="Gwkm3h_hI-mi0Q3v-ILM-1" edge="1">
          <mxGeometry width="50" height="50" relative="1" as="geometry">
            <mxPoint x="300" y="1402.5" as="sourcePoint" />
            <mxPoint x="350" y="1352.5" as="targetPoint" />
          </mxGeometry>
        </mxCell>
        <mxCell id="Gwkm3h_hI-mi0Q3v-ILM-12" value="" style="endArrow=none;html=1;rounded=0;exitX=1;exitY=0.5;exitDx=0;exitDy=0;fontFamily=Times New Roman;entryX=0.708;entryY=1.033;entryDx=0;entryDy=0;entryPerimeter=0;" parent="1" source="Gwkm3h_hI-mi0Q3v-ILM-1" target="Gwkm3h_hI-mi0Q3v-ILM-2" edge="1">
          <mxGeometry width="50" height="50" relative="1" as="geometry">
            <mxPoint x="700" y="1282.5" as="sourcePoint" />
            <mxPoint x="820" y="1290" as="targetPoint" />
          </mxGeometry>
        </mxCell>
        <mxCell id="Gwkm3h_hI-mi0Q3v-ILM-13" value="about_subject" style="shape=rhombus;perimeter=rhombusPerimeter;whiteSpace=wrap;html=1;align=center;fontFamily=Times New Roman;fillColor=#008a00;strokeColor=#005700;fontColor=#ffffff;" parent="1" vertex="1">
          <mxGeometry x="340" y="1015" width="120" height="60" as="geometry" />
        </mxCell>
        <mxCell id="Gwkm3h_hI-mi0Q3v-ILM-14" value="" style="endArrow=none;html=1;rounded=0;entryX=1;entryY=1;entryDx=0;entryDy=0;exitX=0;exitY=0.5;exitDx=0;exitDy=0;fontFamily=Times New Roman;" parent="1" source="Gwkm3h_hI-mi0Q3v-ILM-13" target="lDHVkYLqutTyOCWwUgQS-60" edge="1">
          <mxGeometry width="50" height="50" relative="1" as="geometry">
            <mxPoint x="260" y="1050" as="sourcePoint" />
            <mxPoint x="310" y="1000" as="targetPoint" />
          </mxGeometry>
        </mxCell>
        <mxCell id="Gwkm3h_hI-mi0Q3v-ILM-15" value="" style="endArrow=none;html=1;rounded=0;exitX=1;exitY=0.5;exitDx=0;exitDy=0;fontFamily=Times New Roman;entryX=-0.003;entryY=0.123;entryDx=0;entryDy=0;entryPerimeter=0;" parent="1" source="Gwkm3h_hI-mi0Q3v-ILM-13" target="Gwkm3h_hI-mi0Q3v-ILM-2" edge="1">
          <mxGeometry width="50" height="50" relative="1" as="geometry">
            <mxPoint x="680" y="1060" as="sourcePoint" />
            <mxPoint x="780" y="917" as="targetPoint" />
          </mxGeometry>
        </mxCell>
        <mxCell id="Gwkm3h_hI-mi0Q3v-ILM-34" value="" style="endArrow=classic;html=1;rounded=0;entryX=0.046;entryY=0.67;entryDx=0;entryDy=0;entryPerimeter=0;exitX=1;exitY=0;exitDx=0;exitDy=0;" parent="1" source="Gwkm3h_hI-mi0Q3v-ILM-2" target="Gwkm3h_hI-mi0Q3v-ILM-5" edge="1">
          <mxGeometry width="50" height="50" relative="1" as="geometry">
            <mxPoint x="992" y="906" as="sourcePoint" />
            <mxPoint x="1042" y="856.25" as="targetPoint" />
          </mxGeometry>
        </mxCell>
        <mxCell id="Gwkm3h_hI-mi0Q3v-ILM-40" value="&lt;font face=&quot;Times New Roman&quot;&gt;1&lt;/font&gt;" style="text;html=1;align=center;verticalAlign=middle;resizable=0;points=[];autosize=1;strokeColor=none;fillColor=none;" parent="1" vertex="1">
          <mxGeometry x="-135" y="1690" width="30" height="30" as="geometry" />
        </mxCell>
        <mxCell id="Gwkm3h_hI-mi0Q3v-ILM-41" value="&lt;font face=&quot;Times New Roman&quot;&gt;1&lt;/font&gt;" style="text;html=1;align=center;verticalAlign=middle;resizable=0;points=[];autosize=1;strokeColor=none;fillColor=none;" parent="1" vertex="1">
          <mxGeometry x="-132.5" y="1760" width="30" height="30" as="geometry" />
        </mxCell>
        <mxCell id="Gwkm3h_hI-mi0Q3v-ILM-42" value="&lt;font face=&quot;Times New Roman&quot;&gt;M&lt;/font&gt;" style="text;html=1;align=center;verticalAlign=middle;resizable=0;points=[];autosize=1;strokeColor=none;fillColor=none;" parent="1" vertex="1">
          <mxGeometry x="648.5" y="1442.5" width="30" height="30" as="geometry" />
        </mxCell>
        <mxCell id="Gwkm3h_hI-mi0Q3v-ILM-43" value="&lt;font face=&quot;Times New Roman&quot;&gt;N&lt;/font&gt;" style="text;html=1;align=center;verticalAlign=middle;resizable=0;points=[];autosize=1;strokeColor=none;fillColor=none;" parent="1" vertex="1">
          <mxGeometry x="789.5" y="1457.5" width="30" height="30" as="geometry" />
        </mxCell>
        <mxCell id="Gwkm3h_hI-mi0Q3v-ILM-44" value="&lt;font face=&quot;Times New Roman&quot;&gt;N&lt;/font&gt;" style="text;html=1;align=center;verticalAlign=middle;resizable=0;points=[];autosize=1;strokeColor=none;fillColor=none;" parent="1" vertex="1">
          <mxGeometry x="569" y="1809.5" width="30" height="30" as="geometry" />
        </mxCell>
        <mxCell id="Gwkm3h_hI-mi0Q3v-ILM-45" value="&lt;font face=&quot;Times New Roman&quot;&gt;1&lt;/font&gt;" style="text;html=1;align=center;verticalAlign=middle;resizable=0;points=[];autosize=1;strokeColor=none;fillColor=none;" parent="1" vertex="1">
          <mxGeometry x="745" y="1799.5" width="30" height="30" as="geometry" />
        </mxCell>
        <mxCell id="Gwkm3h_hI-mi0Q3v-ILM-46" value="&lt;font face=&quot;Times New Roman&quot;&gt;1&lt;/font&gt;" style="text;html=1;align=center;verticalAlign=middle;resizable=0;points=[];autosize=1;strokeColor=none;fillColor=none;" parent="1" vertex="1">
          <mxGeometry x="589" y="2308" width="30" height="30" as="geometry" />
        </mxCell>
        <mxCell id="Gwkm3h_hI-mi0Q3v-ILM-47" value="&lt;font face=&quot;Times New Roman&quot;&gt;N&lt;/font&gt;" style="text;html=1;align=center;verticalAlign=middle;resizable=0;points=[];autosize=1;strokeColor=none;fillColor=none;" parent="1" vertex="1">
          <mxGeometry x="735" y="2310" width="30" height="30" as="geometry" />
        </mxCell>
        <mxCell id="Gwkm3h_hI-mi0Q3v-ILM-48" value="&lt;font face=&quot;Times New Roman&quot;&gt;1&lt;/font&gt;" style="text;html=1;align=center;verticalAlign=middle;resizable=0;points=[];autosize=1;strokeColor=none;fillColor=none;" parent="1" vertex="1">
          <mxGeometry x="-112.5" y="2273" width="30" height="30" as="geometry" />
        </mxCell>
        <mxCell id="Gwkm3h_hI-mi0Q3v-ILM-49" value="&lt;font face=&quot;Times New Roman&quot;&gt;N&lt;/font&gt;" style="text;html=1;align=center;verticalAlign=middle;resizable=0;points=[];autosize=1;strokeColor=none;fillColor=none;" parent="1" vertex="1">
          <mxGeometry x="-320" y="2260" width="30" height="30" as="geometry" />
        </mxCell>
        <mxCell id="Gwkm3h_hI-mi0Q3v-ILM-52" value="&lt;font face=&quot;Times New Roman&quot;&gt;N&lt;/font&gt;" style="text;html=1;align=center;verticalAlign=middle;resizable=0;points=[];autosize=1;strokeColor=none;fillColor=none;" parent="1" vertex="1">
          <mxGeometry x="-220" y="1240" width="30" height="30" as="geometry" />
        </mxCell>
        <mxCell id="Gwkm3h_hI-mi0Q3v-ILM-53" value="&lt;font face=&quot;Times New Roman&quot;&gt;1&lt;/font&gt;" style="text;html=1;align=center;verticalAlign=middle;resizable=0;points=[];autosize=1;strokeColor=none;fillColor=none;" parent="1" vertex="1">
          <mxGeometry x="-75" y="1240" width="30" height="30" as="geometry" />
        </mxCell>
        <mxCell id="Gwkm3h_hI-mi0Q3v-ILM-54" value="&lt;font face=&quot;Times New Roman&quot;&gt;1&lt;/font&gt;" style="text;html=1;align=center;verticalAlign=middle;resizable=0;points=[];autosize=1;strokeColor=none;fillColor=none;" parent="1" vertex="1">
          <mxGeometry x="614" y="1330" width="30" height="30" as="geometry" />
        </mxCell>
        <mxCell id="Gwkm3h_hI-mi0Q3v-ILM-55" value="&lt;font face=&quot;Times New Roman&quot;&gt;N&lt;/font&gt;" style="text;html=1;align=center;verticalAlign=middle;resizable=0;points=[];autosize=1;strokeColor=none;fillColor=none;" parent="1" vertex="1">
          <mxGeometry x="766" y="1340" width="30" height="30" as="geometry" />
        </mxCell>
        <mxCell id="Gwkm3h_hI-mi0Q3v-ILM-56" value="&lt;font face=&quot;Times New Roman&quot;&gt;N&lt;/font&gt;" style="text;html=1;align=center;verticalAlign=middle;resizable=0;points=[];autosize=1;strokeColor=none;fillColor=none;" parent="1" vertex="1">
          <mxGeometry x="449" y="1045" width="30" height="30" as="geometry" />
        </mxCell>
        <mxCell id="Gwkm3h_hI-mi0Q3v-ILM-59" value="&lt;font face=&quot;Times New Roman&quot;&gt;1&lt;/font&gt;" style="text;html=1;align=center;verticalAlign=middle;resizable=0;points=[];autosize=1;strokeColor=none;fillColor=none;" parent="1" vertex="1">
          <mxGeometry x="320" y="1045" width="30" height="30" as="geometry" />
        </mxCell>
        <mxCell id="Gwkm3h_hI-mi0Q3v-ILM-60" value="&lt;font face=&quot;Times New Roman&quot;&gt;1&lt;/font&gt;" style="text;html=1;align=center;verticalAlign=middle;resizable=0;points=[];autosize=1;strokeColor=none;fillColor=none;" parent="1" vertex="1">
          <mxGeometry x="449" y="572.5" width="30" height="30" as="geometry" />
        </mxCell>
        <mxCell id="Gwkm3h_hI-mi0Q3v-ILM-61" value="&lt;font face=&quot;Times New Roman&quot;&gt;N&lt;/font&gt;" style="text;html=1;align=center;verticalAlign=middle;resizable=0;points=[];autosize=1;strokeColor=none;fillColor=none;" parent="1" vertex="1">
          <mxGeometry x="284" y="575" width="30" height="30" as="geometry" />
        </mxCell>
        <mxCell id="Gwkm3h_hI-mi0Q3v-ILM-62" value="&lt;font face=&quot;Times New Roman&quot;&gt;N&lt;/font&gt;" style="text;html=1;align=center;verticalAlign=middle;resizable=0;points=[];autosize=1;strokeColor=none;fillColor=none;" parent="1" vertex="1">
          <mxGeometry x="-227" y="580" width="30" height="30" as="geometry" />
        </mxCell>
        <mxCell id="Gwkm3h_hI-mi0Q3v-ILM-63" value="&lt;font face=&quot;Times New Roman&quot;&gt;1&lt;/font&gt;" style="text;html=1;align=center;verticalAlign=middle;resizable=0;points=[];autosize=1;strokeColor=none;fillColor=none;" parent="1" vertex="1">
          <mxGeometry x="-420" y="580" width="30" height="30" as="geometry" />
        </mxCell>
        <mxCell id="Gwkm3h_hI-mi0Q3v-ILM-64" value="" style="endArrow=none;html=1;rounded=0;entryX=-0.012;entryY=0.597;entryDx=0;entryDy=0;exitX=0.958;exitY=0.545;exitDx=0;exitDy=0;exitPerimeter=0;entryPerimeter=0;" parent="1" source="RXMnE6-SKneTDQC4wHI7-25" target="RXMnE6-SKneTDQC4wHI7-7" edge="1">
          <mxGeometry width="50" height="50" relative="1" as="geometry">
            <mxPoint x="810" y="1980.5" as="sourcePoint" />
            <mxPoint x="860" y="1930.5" as="targetPoint" />
          </mxGeometry>
        </mxCell>
        <mxCell id="Gwkm3h_hI-mi0Q3v-ILM-65" value="" style="endArrow=none;html=1;rounded=0;exitX=0.999;exitY=0.333;exitDx=0;exitDy=0;exitPerimeter=0;entryX=0.039;entryY=0.462;entryDx=0;entryDy=0;entryPerimeter=0;" parent="1" source="lDHVkYLqutTyOCWwUgQS-247" target="lDHVkYLqutTyOCWwUgQS-263" edge="1">
          <mxGeometry width="50" height="50" relative="1" as="geometry">
            <mxPoint x="-350" y="2110" as="sourcePoint" />
            <mxPoint x="-370" y="2130" as="targetPoint" />
          </mxGeometry>
        </mxCell>
        <mxCell id="Gwkm3h_hI-mi0Q3v-ILM-67" value="" style="endArrow=none;html=1;rounded=0;exitX=0.946;exitY=0.43;exitDx=0;exitDy=0;exitPerimeter=0;entryX=-0.003;entryY=0.324;entryDx=0;entryDy=0;entryPerimeter=0;" parent="1" source="lDHVkYLqutTyOCWwUgQS-286" target="lDHVkYLqutTyOCWwUgQS-290" edge="1">
          <mxGeometry width="50" height="50" relative="1" as="geometry">
            <mxPoint x="765" y="2227" as="sourcePoint" />
            <mxPoint x="815" y="2177" as="targetPoint" />
          </mxGeometry>
        </mxCell>
        <mxCell id="Gwkm3h_hI-mi0Q3v-ILM-68" value="" style="endArrow=none;html=1;rounded=0;entryX=0.048;entryY=0.561;entryDx=0;entryDy=0;entryPerimeter=0;exitX=1.002;exitY=0.692;exitDx=0;exitDy=0;exitPerimeter=0;" parent="1" source="lDHVkYLqutTyOCWwUgQS-92" target="lDHVkYLqutTyOCWwUgQS-108" edge="1">
          <mxGeometry width="50" height="50" relative="1" as="geometry">
            <mxPoint x="-350" y="1430" as="sourcePoint" />
            <mxPoint x="-227" y="1360" as="targetPoint" />
          </mxGeometry>
        </mxCell>
        <mxCell id="Gwkm3h_hI-mi0Q3v-ILM-69" value="" style="endArrow=none;html=1;rounded=0;exitX=0.959;exitY=0.457;exitDx=0;exitDy=0;exitPerimeter=0;entryX=0.676;entryY=1.013;entryDx=0;entryDy=0;entryPerimeter=0;" parent="1" source="Gwkm3h_hI-mi0Q3v-ILM-1" target="Gwkm3h_hI-mi0Q3v-ILM-2" edge="1">
          <mxGeometry width="50" height="50" relative="1" as="geometry">
            <mxPoint x="630" y="1219" as="sourcePoint" />
            <mxPoint x="680" y="1169" as="targetPoint" />
          </mxGeometry>
        </mxCell>
        <mxCell id="Gwkm3h_hI-mi0Q3v-ILM-70" value="" style="endArrow=none;html=1;rounded=0;exitX=0.95;exitY=0.449;exitDx=0;exitDy=0;exitPerimeter=0;entryX=0;entryY=0;entryDx=0;entryDy=0;" parent="1" source="Gwkm3h_hI-mi0Q3v-ILM-13" target="Gwkm3h_hI-mi0Q3v-ILM-2" edge="1">
          <mxGeometry width="50" height="50" relative="1" as="geometry">
            <mxPoint x="580" y="990" as="sourcePoint" />
            <mxPoint x="760" y="910" as="targetPoint" />
          </mxGeometry>
        </mxCell>
        <mxCell id="Gwkm3h_hI-mi0Q3v-ILM-71" value="" style="endArrow=none;html=1;rounded=0;exitX=0.98;exitY=0.539;exitDx=0;exitDy=0;exitPerimeter=0;entryX=-0.007;entryY=0.631;entryDx=0;entryDy=0;entryPerimeter=0;" parent="1" source="lDHVkYLqutTyOCWwUgQS-75" target="lDHVkYLqutTyOCWwUgQS-77" edge="1">
          <mxGeometry width="50" height="50" relative="1" as="geometry">
            <mxPoint x="618" y="706.25" as="sourcePoint" />
            <mxPoint x="740" y="800" as="targetPoint" />
          </mxGeometry>
        </mxCell>
        <mxCell id="Gwkm3h_hI-mi0Q3v-ILM-72" value="" style="endArrow=none;html=1;rounded=0;exitX=1.007;exitY=0.667;exitDx=0;exitDy=0;exitPerimeter=0;entryX=0.026;entryY=0.523;entryDx=0;entryDy=0;entryPerimeter=0;" parent="1" source="lDHVkYLqutTyOCWwUgQS-45" target="lDHVkYLqutTyOCWwUgQS-46" edge="1">
          <mxGeometry width="50" height="50" relative="1" as="geometry">
            <mxPoint x="-463" y="800" as="sourcePoint" />
            <mxPoint x="-413" y="750" as="targetPoint" />
          </mxGeometry>
        </mxCell>
      </root>
    </mxGraphModel>
  </diagram>
</mxfile>
